<svg width="208" height="58" viewBox="0 0 208 58" fill="none" xmlns="http://www.w3.org/2000/svg">
<g filter="url(#filter0_d)">
<g filter="url(#filter1_d)">
<rect x="4" width="200" height="50" rx="14" fill="#8BAFF4"/>
</g>
<path d="M32.6484 36.0938C31.3828 36.0938 30.2344 35.7773 29.2031 35.1445C28.1719 34.5352 27.293 33.6914 26.5664 32.6133C25.8633 31.5352 25.3125 30.2695 24.9141 28.8164C24.5391 27.3633 24.3516 25.793 24.3516 24.1055C24.3516 21.6914 24.6328 19.5352 25.1953 17.6367C25.7578 15.7383 26.4961 14.1328 27.4102 12.8203C28.3477 11.5078 29.4023 10.5 30.5742 9.79688C31.7695 9.09375 32.9883 8.74219 34.2305 8.74219C35.4023 8.74219 36.3867 8.95312 37.1836 9.375C37.9805 9.79688 38.6133 10.3359 39.082 10.9922C39.5742 11.6484 39.9023 12.375 40.0664 13.1719C40.2539 13.9453 40.3125 14.6836 40.2422 15.3867C40.125 16.7461 39.6562 17.8477 38.8359 18.6914C38.0391 19.5352 37.1133 19.957 36.0586 19.957C35.707 19.9336 35.3438 19.875 34.9688 19.7812C34.6406 19.6875 34.3008 19.5469 33.9492 19.3594C33.5977 19.1719 33.2695 18.9023 32.9648 18.5508C33.9492 18.6211 34.7109 18.4219 35.25 17.9531C35.7891 17.4844 36.1875 16.957 36.4453 16.3711C36.7266 15.6914 36.8906 14.8945 36.9375 13.9805C36.9375 13.4648 36.8555 13.0195 36.6914 12.6445C36.5273 12.2461 36.3047 11.9297 36.0234 11.6953C35.7656 11.4375 35.4844 11.25 35.1797 11.1328C34.875 11.0156 34.582 10.957 34.3008 10.957C33.668 10.957 32.9766 11.2031 32.2266 11.6953C31.5 12.1875 30.8086 12.9375 30.1523 13.9453C29.4961 14.9297 28.9453 16.1953 28.5 17.7422C28.0781 19.2656 27.8672 21.082 27.8672 23.1914C27.8672 25.2773 28.0547 26.9883 28.4297 28.3242C28.8047 29.6367 29.2617 30.668 29.8008 31.418C30.3398 32.1445 30.9023 32.6484 31.4883 32.9297C32.0977 33.1875 32.6133 33.3164 33.0352 33.3164C33.8555 33.2461 34.6055 32.9648 35.2852 32.4727C35.8711 32.0508 36.4219 31.3828 36.9375 30.4688C37.4766 29.5312 37.8398 28.1953 38.0273 26.4609C38.332 26.4844 38.5781 26.5547 38.7656 26.6719C38.9766 26.7891 39.1523 26.9062 39.293 27.0234C39.4336 27.1641 39.5625 27.3281 39.6797 27.5156C39.7031 27.5391 39.7031 27.7734 39.6797 28.2188C39.6562 28.6641 39.5742 29.2031 39.4336 29.8359C39.293 30.4688 39.0703 31.1484 38.7656 31.875C38.4844 32.6016 38.0742 33.2812 37.5352 33.9141C37.0195 34.5469 36.3633 35.0625 35.5664 35.4609C34.7695 35.8828 33.7969 36.0938 32.6484 36.0938ZM51.6328 22.207C51.6328 22.5352 51.5391 22.875 51.3516 23.2266C51.1875 23.5547 50.9766 23.8711 50.7188 24.1758C50.4609 24.4805 50.168 24.75 49.8398 24.9844C49.5352 25.1953 49.2422 25.3242 48.9609 25.3711C49.1484 24.6445 49.207 24.082 49.1367 23.6836C49.0664 23.2852 48.9492 22.9922 48.7852 22.8047C48.5977 22.5938 48.3633 22.4766 48.082 22.4531C47.6602 22.4531 47.25 22.6992 46.8516 23.1914C46.4766 23.6602 46.1484 24.2461 45.8672 24.9492C45.5859 25.6289 45.3633 26.3672 45.1992 27.1641C45.0352 27.9375 44.9531 28.6406 44.9531 29.2734C44.9297 29.7188 44.9414 30.1523 44.9883 30.5742C45.0117 30.9258 45.0469 31.2891 45.0938 31.6641C45.1641 32.0391 45.2578 32.332 45.375 32.543C45.2344 32.6602 45 32.8008 44.6719 32.9648C44.3672 33.1289 44.0391 33.2344 43.6875 33.2812C43.3594 33.3281 43.0547 33.2695 42.7734 33.1055C42.5156 32.9414 42.375 32.5898 42.3516 32.0508C42.3047 31.5352 42.2695 30.9609 42.2461 30.3281C42.2461 29.6719 42.2461 29.0273 42.2461 28.3945C42.2695 27.7383 42.293 27.0938 42.3164 26.4609C42.3398 25.8281 42.375 25.2422 42.4219 24.7031C42.4688 23.6719 42.4922 22.875 42.4922 22.3125C42.4922 21.75 42.4805 21.2109 42.457 20.6953C42.457 20.6016 42.6094 20.4727 42.9141 20.3086C43.2422 20.1211 43.5938 19.957 43.9688 19.8164C44.3672 19.6758 44.7305 19.5938 45.0586 19.5703C45.3867 19.5469 45.5508 19.6172 45.5508 19.7812C45.5508 20.0391 45.5156 20.5547 45.4453 21.3281C45.3984 22.0781 45.3281 22.8633 45.2344 23.6836C45.3984 23.2383 45.6094 22.7578 45.8672 22.2422C46.1484 21.7266 46.4648 21.2461 46.8164 20.8008C47.168 20.3555 47.5664 19.9922 48.0117 19.7109C48.457 19.4062 48.9492 19.2539 49.4883 19.2539C49.9102 19.2539 50.25 19.3828 50.5078 19.6406C50.7891 19.8984 51.0117 20.1914 51.1758 20.5195C51.3398 20.8477 51.457 21.1758 51.5273 21.5039C51.5977 21.832 51.6328 22.0664 51.6328 22.207ZM57.4688 33.3867C55.8281 33.3867 54.5625 32.8359 53.6719 31.7344C52.7812 30.6328 52.3359 29.1914 52.3359 27.4102C52.3359 26.168 52.5117 25.0078 52.8633 23.9297C53.2383 22.8281 53.7305 21.8789 54.3398 21.082C54.9492 20.2852 55.6523 19.6641 56.4492 19.2188C57.2695 18.75 58.125 18.5156 59.0156 18.5156C59.8828 18.5156 60.6211 18.832 61.2305 19.4648C61.8398 20.0742 62.1445 20.9531 62.1445 22.1016C62.1445 22.8516 61.9805 23.6016 61.6523 24.3516C61.3242 25.0781 60.8906 25.7344 60.3516 26.3203C59.8359 26.8828 59.2617 27.3398 58.6289 27.6914C57.9961 28.043 57.3867 28.2188 56.8008 28.2188C56.4258 28.2188 56.1094 28.1719 55.8516 28.0781C55.5938 27.9844 55.3594 27.8438 55.1484 27.6562C55.2188 28.9922 55.5117 29.9297 56.0273 30.4688C56.543 30.9844 57.2109 31.2422 58.0312 31.2422C58.5938 31.2422 59.0859 31.125 59.5078 30.8906C59.9531 30.6562 60.3281 30.3867 60.6328 30.082C60.9375 29.7773 61.1836 29.4727 61.3711 29.168C61.5586 28.8398 61.6875 28.5938 61.7578 28.4297C61.8281 28.2891 61.9453 28.2188 62.1094 28.2188C62.2969 28.2188 62.3906 28.3594 62.3906 28.6406C62.3906 28.8984 62.2969 29.2969 62.1094 29.8359C61.9453 30.3516 61.6641 30.8789 61.2656 31.418C60.8672 31.9336 60.3516 32.3906 59.7188 32.7891C59.1094 33.1875 58.3594 33.3867 57.4688 33.3867ZM59.0859 20.0273C58.9453 20.0273 58.6758 20.1797 58.2773 20.4844C57.9023 20.7656 57.4922 21.1875 57.0469 21.75C56.625 22.3125 56.2266 22.9922 55.8516 23.7891C55.5 24.5625 55.2773 25.4414 55.1836 26.4258C56.5898 26.0977 57.7031 25.582 58.5234 24.8789C59.3438 24.1758 59.7539 23.1445 59.7539 21.7852C59.7539 21.1055 59.6719 20.6484 59.5078 20.4141C59.3438 20.1562 59.2031 20.0273 59.0859 20.0273ZM74.5898 31.207C74.6367 31.3711 74.707 31.5234 74.8008 31.6641C74.8711 31.7812 74.9648 31.8984 75.082 32.0156C75.2227 32.1094 75.3867 32.168 75.5742 32.1914C75.4102 32.5195 75.2461 32.7422 75.082 32.8594C74.9883 32.9297 74.9062 32.9766 74.8359 33C74.625 33.0703 74.3086 33.1055 73.8867 33.1055C73.4648 33.1055 73.0547 32.9766 72.6562 32.7188C72.5156 32.6016 72.3867 32.4258 72.2695 32.1914C72.1523 32.0039 72.0469 31.7461 71.9531 31.418C71.8828 31.0664 71.8242 30.6211 71.7773 30.082C71.4492 30.7852 71.0742 31.3477 70.6523 31.7695C70.2539 32.168 69.8555 32.4609 69.457 32.6484C69.0117 32.9062 68.5547 33.0586 68.0859 33.1055C67.5 33.1523 66.9375 33.0586 66.3984 32.8242C65.8828 32.5664 65.4375 32.1914 65.0625 31.6992C64.7109 31.1836 64.4414 30.5625 64.2539 29.8359C64.0664 29.1094 64.0078 28.2891 64.0781 27.375C64.1484 26.4141 64.3359 25.5586 64.6406 24.8086C64.9453 24.0586 65.3086 23.3906 65.7305 22.8047C66.1523 22.2188 66.5977 21.7266 67.0664 21.3281C67.5352 20.9062 67.9805 20.5664 68.4023 20.3086C68.8477 20.0273 69.2227 19.8281 69.5273 19.7109C69.8555 19.5703 70.0664 19.4883 70.1602 19.4648C70.418 19.3945 70.6406 19.3711 70.8281 19.3945C71.0156 19.418 71.1797 19.5234 71.3203 19.7109C71.3672 19.7812 71.4258 19.8633 71.4961 19.957C71.543 20.0508 71.6016 20.1797 71.6719 20.3438C71.7422 20.4844 71.8008 20.6484 71.8477 20.8359C71.2852 21.0938 70.7578 21.3867 70.2656 21.7148C69.7734 22.0195 69.3164 22.3945 68.8945 22.8398C68.4961 23.2852 68.1445 23.8242 67.8398 24.457C67.5352 25.0898 67.3008 25.8633 67.1367 26.7773C66.9023 27.9258 66.9609 28.8516 67.3125 29.5547C67.6875 30.2578 68.1914 30.5508 68.8242 30.4336C69.1992 30.3164 69.5625 30.0938 69.9141 29.7656C70.2188 29.4844 70.5352 29.0625 70.8633 28.5C71.2148 27.9375 71.543 27.1641 71.8477 26.1797C71.9648 24.7734 72.0586 23.6719 72.1289 22.875C72.2227 22.0547 72.3047 21.4336 72.375 21.0117C72.4688 20.5195 72.5391 20.1914 72.5859 20.0273C72.6562 19.9102 72.7969 19.8047 73.0078 19.7109C73.2188 19.5938 73.4531 19.5 73.7109 19.4297C73.9688 19.3594 74.2031 19.3242 74.4141 19.3242C74.625 19.3008 74.7656 19.3008 74.8359 19.3242C74.8828 19.3477 74.9062 19.6406 74.9062 20.2031C74.9062 20.7422 74.8828 21.4336 74.8359 22.2773C74.8125 23.0977 74.7773 24 74.7305 24.9844C74.6836 25.9453 74.6367 26.8594 74.5898 27.7266C74.5664 28.5938 74.543 29.3555 74.5195 30.0117C74.5195 30.6445 74.543 31.043 74.5898 31.207ZM90.832 17.3555C90.5742 17.3086 90.2227 17.2617 89.7773 17.2148C89.3555 17.168 88.9219 17.1328 88.4766 17.1094C87.9609 17.0859 87.4102 17.0742 86.8242 17.0742C86.2383 17.0273 85.5 17.0273 84.6094 17.0742C83.7422 17.0977 82.8281 17.1094 81.8672 17.1094C81.8438 17.7188 81.7969 18.3398 81.7266 18.9727C81.6797 19.6055 81.6328 20.2266 81.5859 20.8359C81.4688 21.9609 81.3633 23.1094 81.2695 24.2812C81.1992 25.4531 81.1641 26.5664 81.1641 27.6211C81.1641 28.6758 81.2227 29.6367 81.3398 30.5039C81.4805 31.3477 81.7266 32.0156 82.0781 32.5078C81.7969 32.7188 81.4922 32.8828 81.1641 33C80.8359 33.0938 80.543 33.1641 80.2852 33.2109C79.9805 33.2812 79.6758 33.3164 79.3711 33.3164C79.0898 33.3164 78.8555 33.2227 78.668 33.0352C78.4805 32.8477 78.375 32.5195 78.3516 32.0508C78.3047 31.2539 78.293 30.457 78.3164 29.6602C78.3633 28.8398 78.4102 27.9844 78.457 27.0938C78.5273 26.2031 78.5977 25.2539 78.668 24.2461C78.7383 23.2148 78.8086 22.0898 78.8789 20.8711C78.9492 19.6055 78.9844 18.375 78.9844 17.1797C78.0938 17.2031 77.3438 17.2148 76.7344 17.2148C76.125 17.2148 75.7852 17.2031 75.7148 17.1797C75.6445 17.1328 75.5625 17.0273 75.4688 16.8633C75.375 16.7227 75.2578 16.5117 75.1172 16.2305C74.9531 15.9492 74.7539 15.5508 74.5195 15.0352C74.9648 15.0352 75.457 15.0352 75.9961 15.0352C76.5117 15.0352 76.9922 15.0234 77.4375 15C77.9531 14.9766 78.4688 14.9531 78.9844 14.9297C78.9609 14.5547 78.9492 14.1562 78.9492 13.7344C78.9258 13.4062 78.9141 13.043 78.9141 12.6445C78.9141 12.2227 78.9023 11.8359 78.8789 11.4844C78.8789 11.3438 79.043 11.1797 79.3711 10.9922C79.7227 10.7812 80.0977 10.5937 80.4961 10.4297C80.8945 10.2656 81.2578 10.1602 81.5859 10.1133C81.9375 10.0664 82.1133 10.1484 82.1133 10.3594C82.1133 10.5703 82.1016 11.0859 82.0781 11.9062C82.0781 12.7031 82.0547 13.6758 82.0078 14.8242C82.2422 14.8242 82.418 14.8125 82.5352 14.7891C83.7773 14.7422 84.7734 14.6953 85.5234 14.6484C86.2969 14.5781 86.9297 14.5664 87.4219 14.6133C87.9141 14.6602 88.3477 14.7773 88.7227 14.9648C89.0977 15.1523 89.5195 15.457 89.9883 15.8789C90.1523 16.0195 90.293 16.1719 90.4102 16.3359C90.5273 16.4766 90.6211 16.6406 90.6914 16.8281C90.7852 16.9922 90.832 17.168 90.832 17.3555ZM89.6367 33.3867C87.9961 33.3867 86.7305 32.8359 85.8398 31.7344C84.9492 30.6328 84.5039 29.1914 84.5039 27.4102C84.5039 26.168 84.6797 25.0078 85.0312 23.9297C85.4062 22.8281 85.8984 21.8789 86.5078 21.082C87.1172 20.2852 87.8203 19.6641 88.6172 19.2188C89.4375 18.75 90.293 18.5156 91.1836 18.5156C92.0508 18.5156 92.7891 18.832 93.3984 19.4648C94.0078 20.0742 94.3125 20.9531 94.3125 22.1016C94.3125 22.8516 94.1484 23.6016 93.8203 24.3516C93.4922 25.0781 93.0586 25.7344 92.5195 26.3203C92.0039 26.8828 91.4297 27.3398 90.7969 27.6914C90.1641 28.043 89.5547 28.2188 88.9688 28.2188C88.5938 28.2188 88.2773 28.1719 88.0195 28.0781C87.7617 27.9844 87.5273 27.8438 87.3164 27.6562C87.3867 28.9922 87.6797 29.9297 88.1953 30.4688C88.7109 30.9844 89.3789 31.2422 90.1992 31.2422C90.7617 31.2422 91.2539 31.125 91.6758 30.8906C92.1211 30.6562 92.4961 30.3867 92.8008 30.082C93.1055 29.7773 93.3516 29.4727 93.5391 29.168C93.7266 28.8398 93.8555 28.5938 93.9258 28.4297C93.9961 28.2891 94.1133 28.2188 94.2773 28.2188C94.4648 28.2188 94.5586 28.3594 94.5586 28.6406C94.5586 28.8984 94.4648 29.2969 94.2773 29.8359C94.1133 30.3516 93.832 30.8789 93.4336 31.418C93.0352 31.9336 92.5195 32.3906 91.8867 32.7891C91.2773 33.1875 90.5273 33.3867 89.6367 33.3867ZM91.2539 20.0273C91.1133 20.0273 90.8438 20.1797 90.4453 20.4844C90.0703 20.7656 89.6602 21.1875 89.2148 21.75C88.793 22.3125 88.3945 22.9922 88.0195 23.7891C87.668 24.5625 87.4453 25.4414 87.3516 26.4258C88.7578 26.0977 89.8711 25.582 90.6914 24.8789C91.5117 24.1758 91.9219 23.1445 91.9219 21.7852C91.9219 21.1055 91.8398 20.6484 91.6758 20.4141C91.5117 20.1562 91.3711 20.0273 91.2539 20.0273ZM122.965 34.7227C122.73 35.0508 122.461 35.2969 122.156 35.4609C121.852 35.6484 121.559 35.7773 121.277 35.8477C120.949 35.9414 120.598 35.9766 120.223 35.9531C120.082 35.9531 119.93 35.918 119.766 35.8477C119.625 35.8008 119.473 35.7305 119.309 35.6367C119.145 35.5664 119.004 35.4492 118.887 35.2852C118.559 34.1133 118.266 32.9766 118.008 31.875C117.75 30.7734 117.527 29.7891 117.34 28.9219C117.105 27.9141 116.906 26.9648 116.742 26.0742C116.109 26.0508 115.16 26.0508 113.895 26.0742C112.652 26.0742 111.305 26.1445 109.852 26.2852C109.406 27.6914 109.055 28.875 108.797 29.8359C108.539 30.7969 108.352 31.5938 108.234 32.2266C108.117 32.8594 108.07 33.375 108.094 33.7734C108.117 34.1953 108.188 34.5586 108.305 34.8633C107.977 35.1914 107.648 35.4258 107.32 35.5664C107.016 35.7305 106.734 35.8359 106.477 35.8828C106.172 35.9531 105.879 35.9766 105.598 35.9531C105.223 35.9062 104.918 35.8359 104.684 35.7422C104.449 35.6719 104.273 35.543 104.156 35.3555C104.062 35.1914 104.027 34.9453 104.051 34.6172C104.098 34.2891 104.191 33.8555 104.332 33.3164C104.473 32.8477 104.73 32.0156 105.105 30.8203C105.504 29.6016 105.949 28.2188 106.441 26.6719C105.551 26.7422 104.859 26.6953 104.367 26.5312C103.898 26.3672 103.57 25.9219 103.383 25.1953C103.758 25.0781 104.156 24.9727 104.578 24.8789C105.023 24.7617 105.445 24.6562 105.844 24.5625C106.289 24.4688 106.746 24.3867 107.215 24.3164C107.707 22.7695 108.211 21.2461 108.727 19.7461C109.242 18.2461 109.723 16.8984 110.168 15.7031L112.207 10.2539C112.254 10.1133 112.5 9.96094 112.945 9.79688C113.391 9.63281 113.883 9.50391 114.422 9.41016C114.961 9.29297 115.477 9.23438 115.969 9.23438C116.461 9.23438 116.777 9.33984 116.918 9.55078C116.988 10.043 117.082 10.6523 117.199 11.3789C117.34 12.1055 117.469 12.8086 117.586 13.4883C117.727 14.2852 117.891 15.1055 118.078 15.9492C118.289 17.1211 118.512 18.4219 118.746 19.8516C119.004 21.2812 119.32 22.8047 119.695 24.4219C120.07 26.0391 120.516 27.7148 121.031 29.4492C121.547 31.1836 122.191 32.9414 122.965 34.7227ZM113.191 23.7188C113.941 23.6953 114.562 23.6836 115.055 23.6836C115.547 23.6836 115.969 23.6953 116.32 23.7188L116.215 23.1914C116.074 22.3242 115.922 21.3984 115.758 20.4141C115.617 19.4297 115.465 18.457 115.301 17.4961C115.16 16.5352 115.02 15.6211 114.879 14.7539C114.738 13.8867 114.621 13.125 114.527 12.4688C114.293 13.0781 114.023 13.8164 113.719 14.6836C113.414 15.5273 113.086 16.4531 112.734 17.4609C112.383 18.4688 112.02 19.5234 111.645 20.625C111.293 21.7266 110.941 22.8164 110.59 23.8945C111.012 23.8477 111.434 23.8125 111.855 23.7891C112.277 23.7656 112.723 23.7422 113.191 23.7188ZM128.836 10.2188C128.789 11.0625 128.707 12.0352 128.59 13.1367C128.473 14.2383 128.344 15.4219 128.203 16.6875C128.086 17.9531 127.957 19.2773 127.816 20.6602C127.699 22.043 127.594 23.4375 127.5 24.8438C127.406 26.25 127.359 27.3984 127.359 28.2891C127.383 29.1562 127.441 29.8711 127.535 30.4336C127.629 30.9961 127.758 31.4414 127.922 31.7695C128.086 32.0977 128.297 32.4141 128.555 32.7188C128.25 32.9062 127.969 33.0469 127.711 33.1406C127.453 33.2344 127.23 33.3047 127.043 33.3516C126.809 33.4219 126.598 33.457 126.41 33.457C126.059 33.457 125.754 33.293 125.496 32.9648C125.238 32.6133 125.027 32.168 124.863 31.6289C124.723 31.0898 124.605 30.4922 124.512 29.8359C124.441 29.1562 124.406 28.4883 124.406 27.832C124.406 27.1289 124.43 26.3203 124.477 25.4062C124.523 24.4688 124.57 23.4844 124.617 22.4531C124.688 21.3984 124.758 20.3086 124.828 19.1836C124.898 18.0352 124.957 16.8984 125.004 15.7734C125.051 14.9063 125.098 14.1211 125.145 13.418C125.191 12.8086 125.227 12.2578 125.25 11.7656C125.273 11.25 125.262 10.9453 125.215 10.8516C125.355 10.6641 125.531 10.5234 125.742 10.4297C125.953 10.3359 126.152 10.2539 126.34 10.1836C126.574 10.1133 126.809 10.0547 127.043 10.0078H127.711C127.898 10.0078 128.098 10.0312 128.309 10.0781C128.52 10.1016 128.695 10.1484 128.836 10.2188ZM130.945 11.0977C131.133 10.8398 131.332 10.6172 131.543 10.4297C131.777 10.2422 132.012 10.0898 132.246 9.97266C132.504 9.85547 132.773 9.76172 133.055 9.69141C133.266 9.64453 133.465 9.62109 133.652 9.62109C133.816 9.62109 133.969 9.63281 134.109 9.65625C134.273 9.67969 134.402 9.73828 134.496 9.83203C134.449 10.957 134.402 11.918 134.355 12.7148C134.332 13.4883 134.297 14.168 134.25 14.7539C134.227 15.3398 134.203 15.8672 134.18 16.3359C134.156 16.7812 134.121 17.2383 134.074 17.707C134.051 18.1758 134.016 18.6914 133.969 19.2539C133.922 19.793 133.875 20.4492 133.828 21.2227C133.781 21.7148 133.746 22.2188 133.723 22.7344C133.699 23.2266 133.676 23.7305 133.652 24.2461C133.863 23.6602 134.121 23.0508 134.426 22.418C134.754 21.7852 135.129 21.2109 135.551 20.6953C135.973 20.1797 136.453 19.7578 136.992 19.4297C137.531 19.0781 138.117 18.9023 138.75 18.9023C139.641 18.9023 140.355 19.1602 140.895 19.6758C141.434 20.1914 141.844 20.8242 142.125 21.5742C142.406 22.3008 142.582 23.0742 142.652 23.8945C142.746 24.7148 142.793 25.4414 142.793 26.0742C142.793 26.6836 142.711 27.4102 142.547 28.2539C142.406 29.0742 142.137 29.8711 141.738 30.6445C141.363 31.3945 140.859 32.0391 140.227 32.5781C139.594 33.1172 138.797 33.3867 137.836 33.3867C137.156 33.3867 136.582 33.2461 136.113 32.9648C135.645 32.6836 135.258 32.3555 134.953 31.9805C134.648 31.6055 134.426 31.2305 134.285 30.8555C134.168 30.4805 134.109 30.2109 134.109 30.0469C134.109 29.8828 134.168 29.6953 134.285 29.4844C134.402 29.25 134.543 29.0391 134.707 28.8516C134.871 28.6406 135.047 28.4766 135.234 28.3594C135.422 28.2188 135.574 28.1602 135.691 28.1836C135.645 28.957 135.691 29.5547 135.832 29.9766C135.996 30.375 136.184 30.668 136.395 30.8555C136.652 31.0898 136.934 31.2188 137.238 31.2422C137.684 31.2422 138.07 31.0312 138.398 30.6094C138.75 30.1875 139.043 29.6719 139.277 29.0625C139.512 28.4531 139.688 27.7969 139.805 27.0938C139.945 26.3672 140.016 25.7227 140.016 25.1602C140.016 24.7383 139.98 24.293 139.91 23.8242C139.863 23.332 139.781 22.8867 139.664 22.4883C139.547 22.0664 139.383 21.7266 139.172 21.4688C138.961 21.2109 138.703 21.082 138.398 21.082C137.883 21.082 137.344 21.375 136.781 21.9609C136.219 22.5469 135.703 23.3203 135.234 24.2812C134.766 25.2188 134.379 26.2852 134.074 27.4805C133.77 28.6758 133.629 29.8945 133.652 31.1367C133.652 31.4648 133.664 31.7578 133.688 32.0156C133.734 32.25 133.781 32.4609 133.828 32.6484C133.266 32.8828 132.82 33.0234 132.492 33.0703C132.305 33.1172 132.152 33.1289 132.035 33.1055C131.707 33.1055 131.438 33.0117 131.227 32.8242C131.016 32.6367 130.887 32.2383 130.84 31.6289C130.816 31.418 130.805 30.8438 130.805 29.9062C130.805 28.9453 130.805 27.7969 130.805 26.4609C130.805 25.1016 130.805 23.6367 130.805 22.0664C130.828 20.4961 130.84 18.9844 130.84 17.5312C130.863 16.0781 130.875 14.7773 130.875 13.6289C130.898 12.457 130.922 11.6133 130.945 11.0977ZM152.812 19.9219C152.812 19.6641 152.965 19.4766 153.27 19.3594C153.598 19.2188 153.938 19.1484 154.289 19.1484C154.664 19.1484 155.004 19.2188 155.309 19.3594C155.613 19.4766 155.754 19.6406 155.73 19.8516C155.707 20.0156 155.684 20.3438 155.66 20.8359C155.637 21.3047 155.602 21.8672 155.555 22.5234C155.531 23.1797 155.496 23.8828 155.449 24.6328C155.402 25.3828 155.355 26.1211 155.309 26.8477C155.285 27.5508 155.262 28.207 155.238 28.8164C155.238 29.4258 155.238 29.8945 155.238 30.2227C155.238 30.6445 155.262 31.0312 155.309 31.3828C155.355 31.6875 155.414 31.9922 155.484 32.2969C155.555 32.5781 155.66 32.7773 155.801 32.8945C155.613 32.9648 155.414 33.0117 155.203 33.0352C155.016 33.0586 154.84 33.082 154.676 33.1055C154.488 33.1289 154.301 33.1406 154.113 33.1406C153.715 33.1406 153.375 33.0586 153.094 32.8945C152.836 32.7305 152.707 32.3906 152.707 31.875C152.707 31.6172 152.719 31.2422 152.742 30.75C152.789 30.2578 152.836 29.7305 152.883 29.168C152.719 29.6602 152.52 30.1641 152.285 30.6797C152.051 31.1953 151.758 31.6523 151.406 32.0508C151.078 32.4492 150.703 32.7773 150.281 33.0352C149.859 33.293 149.379 33.4219 148.84 33.4219C148.23 33.4219 147.668 33.293 147.152 33.0352C146.66 32.7773 146.227 32.4141 145.852 31.9453C145.477 31.4531 145.195 30.8555 145.008 30.1523C144.82 29.4492 144.75 28.6406 144.797 27.7266C144.797 27.0234 144.809 26.2734 144.832 25.4766C144.855 24.7969 144.891 24.0117 144.938 23.1211C144.984 22.2305 145.066 21.3047 145.184 20.3438C145.207 20.25 145.371 20.1328 145.676 19.9922C145.98 19.8516 146.32 19.7344 146.695 19.6406C147.07 19.5469 147.434 19.5117 147.785 19.5352C148.137 19.5586 148.395 19.6992 148.559 19.957C148.441 20.3789 148.324 20.8828 148.207 21.4688C148.09 22.0312 147.984 22.6172 147.891 23.2266C147.797 23.8359 147.727 24.4336 147.68 25.0195C147.633 25.6055 147.609 26.1445 147.609 26.6367C147.609 27.082 147.633 27.5742 147.68 28.1133C147.727 28.6289 147.809 29.1211 147.926 29.5898C148.066 30.0352 148.254 30.4102 148.488 30.7148C148.746 31.0195 149.074 31.1719 149.473 31.1719C149.918 31.1719 150.305 30.9844 150.633 30.6094C150.984 30.2109 151.277 29.707 151.512 29.0977C151.746 28.4883 151.945 27.7969 152.109 27.0234C152.273 26.2266 152.402 25.4414 152.496 24.668C152.613 23.8945 152.684 23.1562 152.707 22.4531C152.754 21.7266 152.789 21.1172 152.812 20.625V19.9219ZM165.961 22.0312C165.773 22.0312 165.562 22.1367 165.328 22.3477C165.117 22.5352 164.906 22.8047 164.695 23.1562C164.484 23.4844 164.273 23.8594 164.062 24.2812C163.852 24.6797 163.664 25.0898 163.5 25.5117C163.102 26.4961 162.715 27.5039 162.34 28.5352C161.965 29.5664 161.742 30.457 161.672 31.207C161.648 31.2773 161.637 31.3477 161.637 31.418C161.637 31.4648 161.637 31.5117 161.637 31.5586C161.613 31.6055 161.602 31.6758 161.602 31.7695C161.555 32.0977 161.484 32.3672 161.391 32.5781C161.32 32.7656 161.156 32.8945 160.898 32.9648C160.617 33.0117 160.336 33.0469 160.055 33.0703C159.773 33.0938 159.504 33.0703 159.246 33C159.082 32.9531 158.953 32.8711 158.859 32.7539C158.789 32.6133 158.73 32.4609 158.684 32.2969C158.66 32.1094 158.637 31.9336 158.613 31.7695C158.613 31.6055 158.613 31.4648 158.613 31.3477C158.613 31.207 158.625 30.7734 158.648 30.0469C158.672 29.2969 158.695 28.4531 158.719 27.5156C158.742 26.5781 158.754 25.6641 158.754 24.7734C158.754 23.8594 158.742 23.168 158.719 22.6992C158.672 22.3711 158.625 22.0664 158.578 21.7852C158.531 21.5273 158.473 21.2695 158.402 21.0117C158.355 20.7539 158.273 20.5312 158.156 20.3438C158.414 20.2031 158.672 20.0859 158.93 19.9922C159.188 19.8984 159.422 19.8281 159.633 19.7812C159.891 19.7109 160.125 19.6641 160.336 19.6406C160.898 19.5938 161.332 19.5938 161.637 19.6406C161.965 19.6875 162.129 19.9336 162.129 20.3789C162.129 20.7773 162.094 21.3984 162.023 22.2422C161.977 23.0625 161.918 24.2109 161.848 25.6875C162.105 25.1016 162.41 24.4453 162.762 23.7188C163.113 22.9688 163.488 22.2773 163.887 21.6445C164.285 20.9883 164.695 20.4492 165.117 20.0273C165.539 19.582 165.938 19.3594 166.312 19.3594C166.57 19.3594 166.863 19.418 167.191 19.5352C167.543 19.6289 167.871 19.7695 168.176 19.957C168.48 20.1211 168.75 20.3086 168.984 20.5195C169.242 20.7305 169.418 20.9414 169.512 21.1523C169.605 21.3867 169.664 21.75 169.688 22.2422C169.711 22.7344 169.711 23.2852 169.688 23.8945C169.875 23.4492 170.086 23.0156 170.32 22.5938C170.555 22.1719 170.789 21.7852 171.023 21.4336C171.281 21.0586 171.539 20.7422 171.797 20.4844C172.055 20.2266 172.289 20.0508 172.5 19.957C172.781 19.8398 173.121 19.8164 173.52 19.8867C173.918 19.957 174.305 20.0859 174.68 20.2734C175.078 20.4375 175.418 20.6367 175.699 20.8711C176.004 21.1055 176.191 21.3281 176.262 21.5391C176.332 21.7734 176.391 22.1367 176.438 22.6289C176.484 23.1211 176.52 23.6602 176.543 24.2461C176.566 24.832 176.578 25.4414 176.578 26.0742C176.578 26.6836 176.566 27.2227 176.543 27.6914C176.496 29.0508 176.508 30.1289 176.578 30.9258C176.648 31.6992 176.93 32.2734 177.422 32.6484C177.094 32.8594 176.789 33.0117 176.508 33.1055C176.227 33.2227 175.98 33.3047 175.77 33.3516C175.512 33.4219 175.289 33.457 175.102 33.457C174.844 33.457 174.633 33.3867 174.469 33.2461C174.305 33.1289 174.176 32.9648 174.082 32.7539C173.988 32.543 173.93 32.3086 173.906 32.0508C173.883 31.793 173.871 31.5352 173.871 31.2773C173.871 31.043 173.883 30.6562 173.906 30.1172C173.953 29.5547 173.988 28.9219 174.012 28.2188C174.035 27.5156 174.035 26.8008 174.012 26.0742C173.988 25.3242 173.93 24.6445 173.836 24.0352C173.766 23.4023 173.637 22.8867 173.449 22.4883C173.262 22.0898 173.004 21.8906 172.676 21.8906C172.395 21.8906 172.125 22.0664 171.867 22.418C171.609 22.7461 171.363 23.1914 171.129 23.7539C170.895 24.293 170.684 24.9023 170.496 25.582C170.332 26.2383 170.18 26.8945 170.039 27.5508C169.898 28.207 169.793 28.8164 169.723 29.3789C169.652 29.918 169.617 30.3516 169.617 30.6797L169.582 30.3633C169.582 30.8086 169.582 31.2188 169.582 31.5938C169.605 31.9688 169.629 32.3438 169.652 32.7188C169.676 32.8594 169.547 32.9766 169.266 33.0703C168.984 33.1875 168.668 33.2344 168.316 33.2109C167.988 33.2109 167.684 33.1406 167.402 33C167.121 32.8594 166.98 32.625 166.98 32.2969C166.98 32.0625 166.98 31.7109 166.98 31.2422C166.98 30.7734 166.969 30.2461 166.945 29.6602C166.945 29.0742 166.934 28.4648 166.91 27.832C166.91 27.1758 166.898 26.5547 166.875 25.9688C166.875 25.5234 166.863 25.0664 166.84 24.5977C166.84 24.1289 166.816 23.707 166.77 23.332C166.723 22.9336 166.629 22.6172 166.488 22.3828C166.371 22.1484 166.195 22.0312 165.961 22.0312Z" fill="#F5F0F0"/>
</g>
<defs>
<filter id="filter0_d" x="0" y="0" width="208" height="58" filterUnits="userSpaceOnUse" color-interpolation-filters="sRGB">
<feFlood flood-opacity="0" result="BackgroundImageFix"/>
<feColorMatrix in="SourceAlpha" type="matrix" values="0 0 0 0 0 0 0 0 0 0 0 0 0 0 0 0 0 0 127 0"/>
<feOffset dy="4"/>
<feGaussianBlur stdDeviation="2"/>
<feColorMatrix type="matrix" values="0 0 0 0 0 0 0 0 0 0 0 0 0 0 0 0 0 0 0.25 0"/>
<feBlend mode="normal" in2="BackgroundImageFix" result="effect1_dropShadow"/>
<feBlend mode="normal" in="SourceGraphic" in2="effect1_dropShadow" result="shape"/>
</filter>
<filter id="filter1_d" x="0" y="0" width="208" height="58" filterUnits="userSpaceOnUse" color-interpolation-filters="sRGB">
<feFlood flood-opacity="0" result="BackgroundImageFix"/>
<feColorMatrix in="SourceAlpha" type="matrix" values="0 0 0 0 0 0 0 0 0 0 0 0 0 0 0 0 0 0 127 0"/>
<feOffset dy="4"/>
<feGaussianBlur stdDeviation="2"/>
<feColorMatrix type="matrix" values="0 0 0 0 0 0 0 0 0 0 0 0 0 0 0 0 0 0 0.25 0"/>
<feBlend mode="normal" in2="BackgroundImageFix" result="effect1_dropShadow"/>
<feBlend mode="normal" in="SourceGraphic" in2="effect1_dropShadow" result="shape"/>
</filter>
</defs>
</svg>
