<svg width="208" height="58" viewBox="0 0 208 58" fill="none" xmlns="http://www.w3.org/2000/svg">
<g filter="url(#filter0_d)">
<rect x="4" width="200" height="50" rx="14" fill="#8BAFF4"/>
</g>
<path d="M45.707 12.7266C46.5742 12.75 47.418 13.0547 48.2383 13.6406C49.082 14.2266 49.8203 15.0469 50.4531 16.1016C51.0859 17.1562 51.5781 18.4219 51.9297 19.8984C52.3047 21.375 52.4805 23.0273 52.457 24.8555C52.4102 26.8945 52.1641 28.7812 51.7188 30.5156C51.2734 32.25 50.6523 33.75 49.8555 35.0156C49.082 36.2812 48.1445 37.2656 47.043 37.9688C45.9414 38.6719 44.7227 39.0117 43.3867 38.9883C42.1211 38.9648 40.9609 38.6836 39.9062 38.1445C38.875 37.6055 37.9961 36.7969 37.2695 35.7188C36.543 34.6406 35.9805 33.2812 35.582 31.6406C35.207 30 35.043 28.0664 35.0898 25.8398C35.1367 23.6133 35.4648 21.668 36.0742 20.0039C36.707 18.3164 37.457 16.9102 38.3242 15.7852C39.1914 14.6367 40.082 13.7695 40.9961 13.1836C41.9102 12.5742 42.6836 12.2344 43.3164 12.1641C43.7148 12.4453 43.9961 12.7148 44.1602 12.9727C44.3477 12.9023 44.5586 12.8438 44.793 12.7969C45.0508 12.75 45.3555 12.7266 45.707 12.7266ZM48.8711 25.0664C48.8945 23.8711 48.8125 22.7227 48.625 21.6211C48.4375 20.4961 48.1797 19.5 47.8516 18.6328C47.5469 17.7656 47.1953 17.0742 46.7969 16.5586C46.3984 16.0195 46 15.7383 45.6016 15.7148C45.2969 15.7383 44.9922 15.832 44.6875 15.9961C44.4297 16.1602 44.1484 16.4062 43.8438 16.7344C43.5391 17.0625 43.2578 17.5312 43 18.1406C42.7656 17.8125 42.6133 17.4609 42.543 17.0859C42.4961 16.7109 42.4961 16.3359 42.543 15.9609C41.9102 16.4297 41.3594 17.0156 40.8906 17.7188C40.4219 18.3984 40.0352 19.1602 39.7305 20.0039C39.4258 20.8242 39.1914 21.7031 39.0273 22.6406C38.8633 23.5547 38.7695 24.4922 38.7461 25.4531C38.6992 27.375 38.793 29.0156 39.0273 30.375C39.2852 31.7344 39.625 32.8594 40.0469 33.75C40.4922 34.6172 41.0078 35.2617 41.5938 35.6836C42.1797 36.082 42.8125 36.2812 43.4922 36.2812C44.2891 36.3047 45.0039 36.0234 45.6367 35.4375C46.293 34.8281 46.8555 34.0078 47.3242 32.9766C47.793 31.9453 48.1562 30.75 48.4141 29.3906C48.6953 28.0312 48.8477 26.5898 48.8711 25.0664ZM61.5273 22.0781C62.1836 22.0781 62.793 22.2656 63.3555 22.6406C63.918 23.0156 64.3984 23.5078 64.7969 24.1172C65.1953 24.7266 65.5117 25.4297 65.7461 26.2266C65.9805 27 66.0977 27.8086 66.0977 28.6523C66.0977 29.4961 66.0039 30.3867 65.8164 31.3242C65.6289 32.2617 65.3359 33.1289 64.9375 33.9258C64.5391 34.7227 64.0234 35.3906 63.3906 35.9297C62.7578 36.4453 61.9844 36.7031 61.0703 36.7031C60.3438 36.7031 59.6523 36.4453 58.9961 35.9297C58.3633 35.3906 57.8711 34.7227 57.5195 33.9258C57.4727 34.7461 57.3672 35.5781 57.2031 36.4219C57.0391 37.2891 56.957 38.3203 56.957 39.5156C56.957 39.8672 56.9688 40.2656 56.9922 40.7109C57.0156 41.1562 57.0508 41.6016 57.0977 42.0469C57.1445 42.4922 57.2148 42.9023 57.3086 43.2773C57.4023 43.6523 57.5078 43.9453 57.625 44.1562C57.2266 44.3906 56.8633 44.5664 56.5352 44.6836C56.2305 44.8008 55.9609 44.8828 55.7266 44.9297C55.4688 45 55.2227 45.0352 54.9883 45.0352C54.6836 45.0352 54.4844 44.9062 54.3906 44.6484C54.2969 44.3906 54.25 43.9336 54.25 43.2773C54.25 42.8555 54.2617 42.2461 54.2852 41.4492C54.332 40.6758 54.3789 39.7852 54.4258 38.7773C54.4961 37.7695 54.5547 36.7148 54.6016 35.6133C54.6719 34.4883 54.7305 33.3867 54.7773 32.3086C54.8477 31.2305 54.8945 30.2344 54.918 29.3203C54.9648 28.3828 54.9883 27.5977 54.9883 26.9648C54.9883 26.1914 54.9766 25.5938 54.9531 25.1719C54.9297 24.7266 54.8945 24.3984 54.8477 24.1875C54.8242 23.9531 54.7891 23.7891 54.7422 23.6953C54.6953 23.6016 54.6367 23.4961 54.5664 23.3789C54.7773 23.2148 55.0234 23.0742 55.3047 22.957C55.6094 22.8164 55.9023 22.7227 56.1836 22.6758C56.4883 22.6055 56.7578 22.582 56.9922 22.6055C57.25 22.6289 57.4492 22.6875 57.5898 22.7812C57.707 22.8984 57.7891 23.0742 57.8359 23.3086C57.9062 23.543 57.9648 23.8945 58.0117 24.3633C58.457 23.7539 58.9609 23.2266 59.5234 22.7812C60.1094 22.3125 60.7773 22.0781 61.5273 22.0781ZM60.1562 34.6289C60.5781 34.6289 60.9766 34.4297 61.3516 34.0312C61.75 33.6328 62.0898 33.1289 62.3711 32.5195C62.6758 31.8867 62.9102 31.1953 63.0742 30.4453C63.2617 29.6719 63.3555 28.9102 63.3555 28.1602C63.3555 27.3398 63.2734 26.6719 63.1094 26.1562C62.9688 25.6172 62.7812 25.1953 62.5469 24.8906C62.3359 24.5625 62.1016 24.3398 61.8438 24.2227C61.6094 24.082 61.3984 24.0117 61.2109 24.0117C60.7656 24.0117 60.3438 24.1992 59.9453 24.5742C59.5469 24.9258 59.1953 25.3945 58.8906 25.9805C58.5859 26.543 58.3398 27.1758 58.1523 27.8789C57.9883 28.582 57.9062 29.2852 57.9062 29.9883C57.9062 30.6445 57.9648 31.2539 58.082 31.8164C58.2227 32.3789 58.3984 32.8711 58.6094 33.293C58.8203 33.7148 59.0547 34.043 59.3125 34.2773C59.5938 34.5117 59.875 34.6289 60.1562 34.6289ZM72.8477 36.3867C71.207 36.3867 69.9414 35.8359 69.0508 34.7344C68.1602 33.6328 67.7148 32.1914 67.7148 30.4102C67.7148 29.168 67.8906 28.0078 68.2422 26.9297C68.6172 25.8281 69.1094 24.8789 69.7188 24.082C70.3281 23.2852 71.0312 22.6641 71.8281 22.2188C72.6484 21.75 73.5039 21.5156 74.3945 21.5156C75.2617 21.5156 76 21.832 76.6094 22.4648C77.2188 23.0742 77.5234 23.9531 77.5234 25.1016C77.5234 25.8516 77.3594 26.6016 77.0312 27.3516C76.7031 28.0781 76.2695 28.7344 75.7305 29.3203C75.2148 29.8828 74.6406 30.3398 74.0078 30.6914C73.375 31.043 72.7656 31.2188 72.1797 31.2188C71.8047 31.2188 71.4883 31.1719 71.2305 31.0781C70.9727 30.9844 70.7383 30.8438 70.5273 30.6562C70.5977 31.9922 70.8906 32.9297 71.4062 33.4688C71.9219 33.9844 72.5898 34.2422 73.4102 34.2422C73.9727 34.2422 74.4648 34.125 74.8867 33.8906C75.332 33.6562 75.707 33.3867 76.0117 33.082C76.3164 32.7773 76.5625 32.4727 76.75 32.168C76.9375 31.8398 77.0664 31.5938 77.1367 31.4297C77.207 31.2891 77.3242 31.2188 77.4883 31.2188C77.6758 31.2188 77.7695 31.3594 77.7695 31.6406C77.7695 31.8984 77.6758 32.2969 77.4883 32.8359C77.3242 33.3516 77.043 33.8789 76.6445 34.418C76.2461 34.9336 75.7305 35.3906 75.0977 35.7891C74.4883 36.1875 73.7383 36.3867 72.8477 36.3867ZM74.4648 23.0273C74.3242 23.0273 74.0547 23.1797 73.6562 23.4844C73.2812 23.7656 72.8711 24.1875 72.4258 24.75C72.0039 25.3125 71.6055 25.9922 71.2305 26.7891C70.8789 27.5625 70.6562 28.4414 70.5625 29.4258C71.9688 29.0977 73.082 28.582 73.9023 27.8789C74.7227 27.1758 75.1328 26.1445 75.1328 24.7852C75.1328 24.1055 75.0508 23.6484 74.8867 23.4141C74.7227 23.1562 74.582 23.0273 74.4648 23.0273ZM83.4648 35.0508C83.4414 35.1914 83.3125 35.3438 83.0781 35.5078C82.8672 35.6484 82.6094 35.7773 82.3047 35.8945C82.0234 36.0117 81.7539 36.082 81.4961 36.1055C81.2383 36.1523 81.0625 36.1289 80.9688 36.0352C80.875 35.9414 80.7227 35.7656 80.5117 35.5078C80.3008 35.25 80.1719 34.8281 80.125 34.2422C80.0781 33.6328 80.0547 32.8711 80.0547 31.957C80.0547 31.0195 80.043 29.9883 80.0195 28.8633V27.457C80.0195 27.0352 80.0078 26.543 79.9844 25.9805C79.9844 25.418 79.9727 24.832 79.9492 24.2227C80.1602 24.1055 80.3711 24 80.582 23.9062C80.8164 23.7891 81.0273 23.6953 81.2148 23.625C81.4258 23.5312 81.625 23.4609 81.8125 23.4141C82.3047 23.2734 82.6797 23.1914 82.9375 23.168C83.1953 23.1445 83.3477 23.2266 83.3945 23.4141C83.418 23.5547 83.4062 23.8945 83.3594 24.4336C83.3125 24.9023 83.2539 25.6172 83.1836 26.5781C83.1133 27.5156 82.9961 28.8281 82.832 30.5156C83.1367 29.7656 83.3828 29.1211 83.5703 28.582C83.7812 28.043 83.957 27.6094 84.0977 27.2812C84.2383 26.8828 84.3672 26.5664 84.4844 26.332C84.6016 26.0273 84.7539 25.6875 84.9414 25.3125C85.1289 24.9375 85.3164 24.5859 85.5039 24.2578C85.7148 23.9297 85.9023 23.6367 86.0664 23.3789C86.2539 23.1211 86.3945 22.9688 86.4883 22.9219C86.5586 22.875 86.7695 22.875 87.1211 22.9219C87.4727 22.9688 87.8477 23.0859 88.2461 23.2734C88.6445 23.4375 89.0312 23.6836 89.4062 24.0117C89.7812 24.3164 90.0273 24.6914 90.1445 25.1367C90.2852 25.6523 90.332 26.332 90.2852 27.1758C90.2617 28.0195 90.2031 28.8867 90.1094 29.7773C90.0391 30.668 89.9805 31.5117 89.9336 32.3086C89.8867 33.1055 89.9336 33.7148 90.0742 34.1367C90.1211 34.3711 90.1914 34.582 90.2852 34.7695C90.332 34.957 90.3906 35.1328 90.4609 35.2969C90.5547 35.4375 90.6484 35.543 90.7422 35.6133C90.1797 35.8711 89.7227 36.0586 89.3711 36.1758C89.0195 36.293 88.75 36.375 88.5625 36.4219C88.3281 36.4922 88.1641 36.5156 88.0703 36.4922C87.8594 36.4219 87.6719 36.2461 87.5078 35.9648C87.3672 35.6836 87.2383 35.2383 87.1211 34.6289C87.0742 34.4414 87.0508 34.1367 87.0508 33.7148C87.0742 33.2695 87.1094 32.7773 87.1562 32.2383C87.2031 31.6758 87.25 31.1016 87.2969 30.5156C87.3672 29.9062 87.4141 29.3438 87.4375 28.8281C87.4844 28.2891 87.5195 27.832 87.543 27.457C87.5664 27.0586 87.5664 26.7891 87.543 26.6484C87.4258 26.2266 87.2617 25.9336 87.0508 25.7695C86.8398 25.582 86.6758 25.5586 86.5586 25.6992C86.2539 26.0508 85.9258 26.625 85.5742 27.4219C85.2461 28.1953 84.9297 29.0508 84.625 29.9883C84.3203 30.9023 84.0625 31.8164 83.8516 32.7305C83.6406 33.6445 83.5117 34.418 83.4648 35.0508ZM119.148 37.7227C118.914 38.0508 118.645 38.2969 118.34 38.4609C118.035 38.6484 117.742 38.7773 117.461 38.8477C117.133 38.9414 116.781 38.9766 116.406 38.9531C116.266 38.9531 116.113 38.918 115.949 38.8477C115.809 38.8008 115.656 38.7305 115.492 38.6367C115.328 38.5664 115.188 38.4492 115.07 38.2852C114.742 37.1133 114.449 35.9766 114.191 34.875C113.934 33.7734 113.711 32.7891 113.523 31.9219C113.289 30.9141 113.09 29.9648 112.926 29.0742C112.293 29.0508 111.344 29.0508 110.078 29.0742C108.836 29.0742 107.488 29.1445 106.035 29.2852C105.59 30.6914 105.238 31.875 104.98 32.8359C104.723 33.7969 104.535 34.5938 104.418 35.2266C104.301 35.8594 104.254 36.375 104.277 36.7734C104.301 37.1953 104.371 37.5586 104.488 37.8633C104.16 38.1914 103.832 38.4258 103.504 38.5664C103.199 38.7305 102.918 38.8359 102.66 38.8828C102.355 38.9531 102.062 38.9766 101.781 38.9531C101.406 38.9062 101.102 38.8359 100.867 38.7422C100.633 38.6719 100.457 38.543 100.34 38.3555C100.246 38.1914 100.211 37.9453 100.234 37.6172C100.281 37.2891 100.375 36.8555 100.516 36.3164C100.656 35.8477 100.914 35.0156 101.289 33.8203C101.688 32.6016 102.133 31.2188 102.625 29.6719C101.734 29.7422 101.043 29.6953 100.551 29.5312C100.082 29.3672 99.7539 28.9219 99.5664 28.1953C99.9414 28.0781 100.34 27.9727 100.762 27.8789C101.207 27.7617 101.629 27.6562 102.027 27.5625C102.473 27.4688 102.93 27.3867 103.398 27.3164C103.891 25.7695 104.395 24.2461 104.91 22.7461C105.426 21.2461 105.906 19.8984 106.352 18.7031L108.391 13.2539C108.438 13.1133 108.684 12.9609 109.129 12.7969C109.574 12.6328 110.066 12.5039 110.605 12.4102C111.145 12.293 111.66 12.2344 112.152 12.2344C112.645 12.2344 112.961 12.3398 113.102 12.5508C113.172 13.043 113.266 13.6523 113.383 14.3789C113.523 15.1055 113.652 15.8086 113.77 16.4883C113.91 17.2852 114.074 18.1055 114.262 18.9492C114.473 20.1211 114.695 21.4219 114.93 22.8516C115.188 24.2812 115.504 25.8047 115.879 27.4219C116.254 29.0391 116.699 30.7148 117.215 32.4492C117.73 34.1836 118.375 35.9414 119.148 37.7227ZM109.375 26.7188C110.125 26.6953 110.746 26.6836 111.238 26.6836C111.73 26.6836 112.152 26.6953 112.504 26.7188L112.398 26.1914C112.258 25.3242 112.105 24.3984 111.941 23.4141C111.801 22.4297 111.648 21.457 111.484 20.4961C111.344 19.5352 111.203 18.6211 111.062 17.7539C110.922 16.8867 110.805 16.125 110.711 15.4688C110.477 16.0781 110.207 16.8164 109.902 17.6836C109.598 18.5273 109.27 19.4531 108.918 20.4609C108.566 21.4688 108.203 22.5234 107.828 23.625C107.477 24.7266 107.125 25.8164 106.773 26.8945C107.195 26.8477 107.617 26.8125 108.039 26.7891C108.461 26.7656 108.906 26.7422 109.375 26.7188ZM125.02 13.2188C124.973 14.0625 124.891 15.0352 124.773 16.1367C124.656 17.2383 124.527 18.4219 124.387 19.6875C124.27 20.9531 124.141 22.2773 124 23.6602C123.883 25.043 123.777 26.4375 123.684 27.8438C123.59 29.25 123.543 30.3984 123.543 31.2891C123.566 32.1562 123.625 32.8711 123.719 33.4336C123.812 33.9961 123.941 34.4414 124.105 34.7695C124.27 35.0977 124.48 35.4141 124.738 35.7188C124.434 35.9062 124.152 36.0469 123.895 36.1406C123.637 36.2344 123.414 36.3047 123.227 36.3516C122.992 36.4219 122.781 36.457 122.594 36.457C122.242 36.457 121.938 36.293 121.68 35.9648C121.422 35.6133 121.211 35.168 121.047 34.6289C120.906 34.0898 120.789 33.4922 120.695 32.8359C120.625 32.1562 120.59 31.4883 120.59 30.832C120.59 30.1289 120.613 29.3203 120.66 28.4062C120.707 27.4688 120.754 26.4844 120.801 25.4531C120.871 24.3984 120.941 23.3086 121.012 22.1836C121.082 21.0352 121.141 19.8984 121.188 18.7734C121.234 17.9062 121.281 17.1211 121.328 16.418C121.375 15.8086 121.41 15.2578 121.434 14.7656C121.457 14.25 121.445 13.9453 121.398 13.8516C121.539 13.6641 121.715 13.5234 121.926 13.4297C122.137 13.3359 122.336 13.2539 122.523 13.1836C122.758 13.1133 122.992 13.0547 123.227 13.0078H123.895C124.082 13.0078 124.281 13.0312 124.492 13.0781C124.703 13.1016 124.879 13.1484 125.02 13.2188ZM127.129 14.0977C127.316 13.8398 127.516 13.6172 127.727 13.4297C127.961 13.2422 128.195 13.0898 128.43 12.9727C128.688 12.8555 128.957 12.7617 129.238 12.6914C129.449 12.6445 129.648 12.6211 129.836 12.6211C130 12.6211 130.152 12.6328 130.293 12.6562C130.457 12.6797 130.586 12.7383 130.68 12.832C130.633 13.957 130.586 14.918 130.539 15.7148C130.516 16.4883 130.48 17.168 130.434 17.7539C130.41 18.3398 130.387 18.8672 130.363 19.3359C130.34 19.7812 130.305 20.2383 130.258 20.707C130.234 21.1758 130.199 21.6914 130.152 22.2539C130.105 22.793 130.059 23.4492 130.012 24.2227C129.965 24.7148 129.93 25.2188 129.906 25.7344C129.883 26.2266 129.859 26.7305 129.836 27.2461C130.047 26.6602 130.305 26.0508 130.609 25.418C130.938 24.7852 131.312 24.2109 131.734 23.6953C132.156 23.1797 132.637 22.7578 133.176 22.4297C133.715 22.0781 134.301 21.9023 134.934 21.9023C135.824 21.9023 136.539 22.1602 137.078 22.6758C137.617 23.1914 138.027 23.8242 138.309 24.5742C138.59 25.3008 138.766 26.0742 138.836 26.8945C138.93 27.7148 138.977 28.4414 138.977 29.0742C138.977 29.6836 138.895 30.4102 138.73 31.2539C138.59 32.0742 138.32 32.8711 137.922 33.6445C137.547 34.3945 137.043 35.0391 136.41 35.5781C135.777 36.1172 134.98 36.3867 134.02 36.3867C133.34 36.3867 132.766 36.2461 132.297 35.9648C131.828 35.6836 131.441 35.3555 131.137 34.9805C130.832 34.6055 130.609 34.2305 130.469 33.8555C130.352 33.4805 130.293 33.2109 130.293 33.0469C130.293 32.8828 130.352 32.6953 130.469 32.4844C130.586 32.25 130.727 32.0391 130.891 31.8516C131.055 31.6406 131.23 31.4766 131.418 31.3594C131.605 31.2188 131.758 31.1602 131.875 31.1836C131.828 31.957 131.875 32.5547 132.016 32.9766C132.18 33.375 132.367 33.668 132.578 33.8555C132.836 34.0898 133.117 34.2188 133.422 34.2422C133.867 34.2422 134.254 34.0312 134.582 33.6094C134.934 33.1875 135.227 32.6719 135.461 32.0625C135.695 31.4531 135.871 30.7969 135.988 30.0938C136.129 29.3672 136.199 28.7227 136.199 28.1602C136.199 27.7383 136.164 27.293 136.094 26.8242C136.047 26.332 135.965 25.8867 135.848 25.4883C135.73 25.0664 135.566 24.7266 135.355 24.4688C135.145 24.2109 134.887 24.082 134.582 24.082C134.066 24.082 133.527 24.375 132.965 24.9609C132.402 25.5469 131.887 26.3203 131.418 27.2812C130.949 28.2188 130.562 29.2852 130.258 30.4805C129.953 31.6758 129.812 32.8945 129.836 34.1367C129.836 34.4648 129.848 34.7578 129.871 35.0156C129.918 35.25 129.965 35.4609 130.012 35.6484C129.449 35.8828 129.004 36.0234 128.676 36.0703C128.488 36.1172 128.336 36.1289 128.219 36.1055C127.891 36.1055 127.621 36.0117 127.41 35.8242C127.199 35.6367 127.07 35.2383 127.023 34.6289C127 34.418 126.988 33.8438 126.988 32.9062C126.988 31.9453 126.988 30.7969 126.988 29.4609C126.988 28.1016 126.988 26.6367 126.988 25.0664C127.012 23.4961 127.023 21.9844 127.023 20.5312C127.047 19.0781 127.059 17.7773 127.059 16.6289C127.082 15.457 127.105 14.6133 127.129 14.0977ZM148.996 22.9219C148.996 22.6641 149.148 22.4766 149.453 22.3594C149.781 22.2188 150.121 22.1484 150.473 22.1484C150.848 22.1484 151.188 22.2188 151.492 22.3594C151.797 22.4766 151.938 22.6406 151.914 22.8516C151.891 23.0156 151.867 23.3438 151.844 23.8359C151.82 24.3047 151.785 24.8672 151.738 25.5234C151.715 26.1797 151.68 26.8828 151.633 27.6328C151.586 28.3828 151.539 29.1211 151.492 29.8477C151.469 30.5508 151.445 31.207 151.422 31.8164C151.422 32.4258 151.422 32.8945 151.422 33.2227C151.422 33.6445 151.445 34.0312 151.492 34.3828C151.539 34.6875 151.598 34.9922 151.668 35.2969C151.738 35.5781 151.844 35.7773 151.984 35.8945C151.797 35.9648 151.598 36.0117 151.387 36.0352C151.199 36.0586 151.023 36.082 150.859 36.1055C150.672 36.1289 150.484 36.1406 150.297 36.1406C149.898 36.1406 149.559 36.0586 149.277 35.8945C149.02 35.7305 148.891 35.3906 148.891 34.875C148.891 34.6172 148.902 34.2422 148.926 33.75C148.973 33.2578 149.02 32.7305 149.066 32.168C148.902 32.6602 148.703 33.1641 148.469 33.6797C148.234 34.1953 147.941 34.6523 147.59 35.0508C147.262 35.4492 146.887 35.7773 146.465 36.0352C146.043 36.293 145.562 36.4219 145.023 36.4219C144.414 36.4219 143.852 36.293 143.336 36.0352C142.844 35.7773 142.41 35.4141 142.035 34.9453C141.66 34.4531 141.379 33.8555 141.191 33.1523C141.004 32.4492 140.934 31.6406 140.98 30.7266C140.98 30.0234 140.992 29.2734 141.016 28.4766C141.039 27.7969 141.074 27.0117 141.121 26.1211C141.168 25.2305 141.25 24.3047 141.367 23.3438C141.391 23.25 141.555 23.1328 141.859 22.9922C142.164 22.8516 142.504 22.7344 142.879 22.6406C143.254 22.5469 143.617 22.5117 143.969 22.5352C144.32 22.5586 144.578 22.6992 144.742 22.957C144.625 23.3789 144.508 23.8828 144.391 24.4688C144.273 25.0312 144.168 25.6172 144.074 26.2266C143.98 26.8359 143.91 27.4336 143.863 28.0195C143.816 28.6055 143.793 29.1445 143.793 29.6367C143.793 30.082 143.816 30.5742 143.863 31.1133C143.91 31.6289 143.992 32.1211 144.109 32.5898C144.25 33.0352 144.438 33.4102 144.672 33.7148C144.93 34.0195 145.258 34.1719 145.656 34.1719C146.102 34.1719 146.488 33.9844 146.816 33.6094C147.168 33.2109 147.461 32.707 147.695 32.0977C147.93 31.4883 148.129 30.7969 148.293 30.0234C148.457 29.2266 148.586 28.4414 148.68 27.668C148.797 26.8945 148.867 26.1562 148.891 25.4531C148.938 24.7266 148.973 24.1172 148.996 23.625V22.9219ZM162.145 25.0312C161.957 25.0312 161.746 25.1367 161.512 25.3477C161.301 25.5352 161.09 25.8047 160.879 26.1562C160.668 26.4844 160.457 26.8594 160.246 27.2812C160.035 27.6797 159.848 28.0898 159.684 28.5117C159.285 29.4961 158.898 30.5039 158.523 31.5352C158.148 32.5664 157.926 33.457 157.855 34.207C157.832 34.2773 157.82 34.3477 157.82 34.418C157.82 34.4648 157.82 34.5117 157.82 34.5586C157.797 34.6055 157.785 34.6758 157.785 34.7695C157.738 35.0977 157.668 35.3672 157.574 35.5781C157.504 35.7656 157.34 35.8945 157.082 35.9648C156.801 36.0117 156.52 36.0469 156.238 36.0703C155.957 36.0938 155.688 36.0703 155.43 36C155.266 35.9531 155.137 35.8711 155.043 35.7539C154.973 35.6133 154.914 35.4609 154.867 35.2969C154.844 35.1094 154.82 34.9336 154.797 34.7695C154.797 34.6055 154.797 34.4648 154.797 34.3477C154.797 34.207 154.809 33.7734 154.832 33.0469C154.855 32.2969 154.879 31.4531 154.902 30.5156C154.926 29.5781 154.938 28.6641 154.938 27.7734C154.938 26.8594 154.926 26.168 154.902 25.6992C154.855 25.3711 154.809 25.0664 154.762 24.7852C154.715 24.5273 154.656 24.2695 154.586 24.0117C154.539 23.7539 154.457 23.5312 154.34 23.3438C154.598 23.2031 154.855 23.0859 155.113 22.9922C155.371 22.8984 155.605 22.8281 155.816 22.7812C156.074 22.7109 156.309 22.6641 156.52 22.6406C157.082 22.5938 157.516 22.5938 157.82 22.6406C158.148 22.6875 158.312 22.9336 158.312 23.3789C158.312 23.7773 158.277 24.3984 158.207 25.2422C158.16 26.0625 158.102 27.2109 158.031 28.6875C158.289 28.1016 158.594 27.4453 158.945 26.7188C159.297 25.9688 159.672 25.2773 160.07 24.6445C160.469 23.9883 160.879 23.4492 161.301 23.0273C161.723 22.582 162.121 22.3594 162.496 22.3594C162.754 22.3594 163.047 22.418 163.375 22.5352C163.727 22.6289 164.055 22.7695 164.359 22.957C164.664 23.1211 164.934 23.3086 165.168 23.5195C165.426 23.7305 165.602 23.9414 165.695 24.1523C165.789 24.3867 165.848 24.75 165.871 25.2422C165.895 25.7344 165.895 26.2852 165.871 26.8945C166.059 26.4492 166.27 26.0156 166.504 25.5938C166.738 25.1719 166.973 24.7852 167.207 24.4336C167.465 24.0586 167.723 23.7422 167.98 23.4844C168.238 23.2266 168.473 23.0508 168.684 22.957C168.965 22.8398 169.305 22.8164 169.703 22.8867C170.102 22.957 170.488 23.0859 170.863 23.2734C171.262 23.4375 171.602 23.6367 171.883 23.8711C172.188 24.1055 172.375 24.3281 172.445 24.5391C172.516 24.7734 172.574 25.1367 172.621 25.6289C172.668 26.1211 172.703 26.6602 172.727 27.2461C172.75 27.832 172.762 28.4414 172.762 29.0742C172.762 29.6836 172.75 30.2227 172.727 30.6914C172.68 32.0508 172.691 33.1289 172.762 33.9258C172.832 34.6992 173.113 35.2734 173.605 35.6484C173.277 35.8594 172.973 36.0117 172.691 36.1055C172.41 36.2227 172.164 36.3047 171.953 36.3516C171.695 36.4219 171.473 36.457 171.285 36.457C171.027 36.457 170.816 36.3867 170.652 36.2461C170.488 36.1289 170.359 35.9648 170.266 35.7539C170.172 35.543 170.113 35.3086 170.09 35.0508C170.066 34.793 170.055 34.5352 170.055 34.2773C170.055 34.043 170.066 33.6562 170.09 33.1172C170.137 32.5547 170.172 31.9219 170.195 31.2188C170.219 30.5156 170.219 29.8008 170.195 29.0742C170.172 28.3242 170.113 27.6445 170.02 27.0352C169.949 26.4023 169.82 25.8867 169.633 25.4883C169.445 25.0898 169.188 24.8906 168.859 24.8906C168.578 24.8906 168.309 25.0664 168.051 25.418C167.793 25.7461 167.547 26.1914 167.312 26.7539C167.078 27.293 166.867 27.9023 166.68 28.582C166.516 29.2383 166.363 29.8945 166.223 30.5508C166.082 31.207 165.977 31.8164 165.906 32.3789C165.836 32.918 165.801 33.3516 165.801 33.6797L165.766 33.3633C165.766 33.8086 165.766 34.2188 165.766 34.5938C165.789 34.9688 165.812 35.3438 165.836 35.7188C165.859 35.8594 165.73 35.9766 165.449 36.0703C165.168 36.1875 164.852 36.2344 164.5 36.2109C164.172 36.2109 163.867 36.1406 163.586 36C163.305 35.8594 163.164 35.625 163.164 35.2969C163.164 35.0625 163.164 34.7109 163.164 34.2422C163.164 33.7734 163.152 33.2461 163.129 32.6602C163.129 32.0742 163.117 31.4648 163.094 30.832C163.094 30.1758 163.082 29.5547 163.059 28.9688C163.059 28.5234 163.047 28.0664 163.023 27.5977C163.023 27.1289 163 26.707 162.953 26.332C162.906 25.9336 162.812 25.6172 162.672 25.3828C162.555 25.1484 162.379 25.0312 162.145 25.0312Z" fill="#FFE8E8"/>
<defs>
<filter id="filter0_d" x="0" y="0" width="208" height="58" filterUnits="userSpaceOnUse" color-interpolation-filters="sRGB">
<feFlood flood-opacity="0" result="BackgroundImageFix"/>
<feColorMatrix in="SourceAlpha" type="matrix" values="0 0 0 0 0 0 0 0 0 0 0 0 0 0 0 0 0 0 127 0"/>
<feOffset dy="4"/>
<feGaussianBlur stdDeviation="2"/>
<feColorMatrix type="matrix" values="0 0 0 0 0 0 0 0 0 0 0 0 0 0 0 0 0 0 0.25 0"/>
<feBlend mode="normal" in2="BackgroundImageFix" result="effect1_dropShadow"/>
<feBlend mode="normal" in="SourceGraphic" in2="effect1_dropShadow" result="shape"/>
</filter>
</defs>
</svg>
