<svg width="369" height="134" viewBox="0 0 369 134" fill="none" xmlns="http://www.w3.org/2000/svg">
<g filter="url(#filter0_d)">
<rect x="4" width="361" height="126" rx="14" fill="#8BF4E7"/>
</g>
<path d="M135.072 88.1953C134.979 88.1836 134.885 88.125 134.791 88.0195C134.709 87.9141 134.633 87.7969 134.562 87.668C134.48 87.5273 134.404 87.3633 134.334 87.1758C134.252 86.9414 134.199 86.7422 134.176 86.5781C134.164 86.4023 134.176 86.25 134.211 86.1211C134.246 85.9922 134.305 85.875 134.387 85.7695C134.469 85.6641 134.568 85.5586 134.686 85.4531C134.826 85.3242 135.084 85.1602 135.459 84.9609C135.834 84.7617 136.268 84.5918 136.76 84.4512V84.2754C136.76 84.2168 136.76 84.1641 136.76 84.1172C136.771 84.0703 136.777 84.0234 136.777 83.9766L138.166 83.5195C138.26 83.4844 138.359 83.4844 138.465 83.5195C138.57 83.543 138.611 83.6484 138.588 83.8359C138.588 83.8945 138.582 83.9531 138.57 84.0117C138.57 84.0703 138.564 84.1348 138.553 84.2051C139.303 84.2285 139.982 84.3809 140.592 84.6621C141.213 84.9434 141.74 85.3301 142.174 85.8223C142.619 86.3027 142.965 86.877 143.211 87.5449C143.457 88.2129 143.58 88.9395 143.58 89.7246C143.58 90.8848 143.416 91.8926 143.088 92.748C142.76 93.6035 142.332 94.3301 141.805 94.9277C141.277 95.5254 140.68 96.0059 140.012 96.3691C139.344 96.7324 138.676 96.9961 138.008 97.1602C137.926 97.2422 137.814 97.3242 137.674 97.4062C137.533 97.4883 137.381 97.5586 137.217 97.6172C137.053 97.6758 136.883 97.7168 136.707 97.7402C136.543 97.7754 136.396 97.7812 136.268 97.7578C136.268 97.7344 136.268 97.6992 136.268 97.6523C136.279 97.6055 136.285 97.5645 136.285 97.5293C136.285 97.4824 136.291 97.4355 136.303 97.3887C135.846 97.4121 135.447 97.3887 135.107 97.3184C135.025 97.2715 134.949 97.1836 134.879 97.0547C134.844 97.0078 134.814 96.9492 134.791 96.8789C134.756 96.8203 134.732 96.7617 134.721 96.7031C134.686 96.5977 134.686 96.4688 134.721 96.3164C135.295 96.3867 135.846 96.3867 136.373 96.3164C136.408 95.8125 136.443 95.2031 136.479 94.4883C136.514 93.7617 136.549 92.9766 136.584 92.1328C136.607 91.6406 136.625 91.1191 136.637 90.5684C136.66 90.0059 136.678 89.4492 136.689 88.8984C136.701 88.3359 136.713 87.791 136.725 87.2637C136.736 86.7363 136.742 86.25 136.742 85.8047C136.18 86.0273 135.74 86.3496 135.424 86.7715C135.119 87.1816 135.002 87.6562 135.072 88.1953ZM138.219 88.3008C138.172 89.0859 138.137 89.8535 138.113 90.6035C138.09 91.3535 138.072 92.0625 138.061 92.7305C138.061 93.3984 138.066 94.0078 138.078 94.5586C138.09 95.0977 138.102 95.5547 138.113 95.9297C139.238 95.5078 140.135 94.7988 140.803 93.8027C141.482 92.8066 141.822 91.5586 141.822 90.0586C141.822 89.4023 141.74 88.8047 141.576 88.2656C141.424 87.7148 141.201 87.2461 140.908 86.8594C140.615 86.4609 140.264 86.1504 139.854 85.9277C139.443 85.7051 138.992 85.582 138.5 85.5586H138.43C138.395 85.9102 138.359 86.3145 138.324 86.7715C138.289 87.2168 138.254 87.7266 138.219 88.3008ZM149.346 90.6035C149.346 90.7676 149.299 90.9375 149.205 91.1133C149.123 91.2773 149.018 91.4355 148.889 91.5879C148.76 91.7402 148.613 91.875 148.449 91.9922C148.297 92.0977 148.15 92.1621 148.01 92.1855C148.104 91.8223 148.133 91.541 148.098 91.3418C148.062 91.1426 148.004 90.9961 147.922 90.9023C147.828 90.7969 147.711 90.7383 147.57 90.7266C147.359 90.7266 147.154 90.8496 146.955 91.0957C146.768 91.3301 146.604 91.623 146.463 91.9746C146.322 92.3145 146.211 92.6836 146.129 93.082C146.047 93.4688 146.006 93.8203 146.006 94.1367C145.994 94.3594 146 94.5762 146.023 94.7871C146.035 94.9629 146.053 95.1445 146.076 95.332C146.111 95.5195 146.158 95.666 146.217 95.7715C146.146 95.8301 146.029 95.9004 145.865 95.9824C145.713 96.0645 145.549 96.1172 145.373 96.1406C145.209 96.1641 145.057 96.1348 144.916 96.0527C144.787 95.9707 144.717 95.7949 144.705 95.5254C144.682 95.2676 144.664 94.9805 144.652 94.6641C144.652 94.3359 144.652 94.0137 144.652 93.6973C144.664 93.3691 144.676 93.0469 144.688 92.7305C144.699 92.4141 144.717 92.1211 144.74 91.8516C144.764 91.3359 144.775 90.9375 144.775 90.6562C144.775 90.375 144.77 90.1055 144.758 89.8477C144.758 89.8008 144.834 89.7363 144.986 89.6543C145.15 89.5605 145.326 89.4785 145.514 89.4082C145.713 89.3379 145.895 89.2969 146.059 89.2852C146.223 89.2734 146.305 89.3086 146.305 89.3906C146.305 89.5195 146.287 89.7773 146.252 90.1641C146.229 90.5391 146.193 90.9316 146.146 91.3418C146.229 91.1191 146.334 90.8789 146.463 90.6211C146.604 90.3633 146.762 90.123 146.938 89.9004C147.113 89.6777 147.312 89.4961 147.535 89.3555C147.758 89.2031 148.004 89.127 148.273 89.127C148.484 89.127 148.654 89.1914 148.783 89.3203C148.924 89.4492 149.035 89.5957 149.117 89.7598C149.199 89.9238 149.258 90.0879 149.293 90.252C149.328 90.416 149.346 90.5332 149.346 90.6035ZM154.988 95.1035C155.012 95.1855 155.047 95.2617 155.094 95.332C155.129 95.3906 155.176 95.4492 155.234 95.5078C155.305 95.5547 155.387 95.584 155.48 95.5957C155.398 95.7598 155.316 95.8711 155.234 95.9297C155.188 95.9648 155.146 95.9883 155.111 96C155.006 96.0352 154.848 96.0527 154.637 96.0527C154.426 96.0527 154.221 95.9883 154.021 95.8594C153.951 95.8008 153.887 95.7129 153.828 95.5957C153.77 95.502 153.717 95.373 153.67 95.209C153.635 95.0332 153.605 94.8105 153.582 94.541C153.418 94.8926 153.23 95.1738 153.02 95.3848C152.82 95.584 152.621 95.7305 152.422 95.8242C152.199 95.9531 151.971 96.0293 151.736 96.0527C151.443 96.0762 151.162 96.0293 150.893 95.9121C150.635 95.7832 150.412 95.5957 150.225 95.3496C150.049 95.0918 149.914 94.7812 149.82 94.418C149.727 94.0547 149.697 93.6445 149.732 93.1875C149.768 92.707 149.861 92.2793 150.014 91.9043C150.166 91.5293 150.348 91.1953 150.559 90.9023C150.77 90.6094 150.992 90.3633 151.227 90.1641C151.461 89.9531 151.684 89.7832 151.895 89.6543C152.117 89.5137 152.305 89.4141 152.457 89.3555C152.621 89.2852 152.727 89.2441 152.773 89.2324C152.902 89.1973 153.014 89.1855 153.107 89.1973C153.201 89.209 153.283 89.2617 153.354 89.3555C153.377 89.3906 153.406 89.4316 153.441 89.4785C153.465 89.5254 153.494 89.5898 153.529 89.6719C153.564 89.7422 153.594 89.8242 153.617 89.918C153.336 90.0469 153.072 90.1934 152.826 90.3574C152.58 90.5098 152.352 90.6973 152.141 90.9199C151.941 91.1426 151.766 91.4121 151.613 91.7285C151.461 92.0449 151.344 92.4316 151.262 92.8887C151.145 93.4629 151.174 93.9258 151.35 94.2773C151.537 94.6289 151.789 94.7754 152.105 94.7168C152.293 94.6582 152.475 94.5469 152.65 94.3828C152.803 94.2422 152.961 94.0312 153.125 93.75C153.301 93.4688 153.465 93.082 153.617 92.5898C153.676 91.8867 153.723 91.3359 153.758 90.9375C153.805 90.5273 153.846 90.2168 153.881 90.0059C153.928 89.7598 153.963 89.5957 153.986 89.5137C154.021 89.4551 154.092 89.4023 154.197 89.3555C154.303 89.2969 154.42 89.25 154.549 89.2148C154.678 89.1797 154.795 89.1621 154.9 89.1621C155.006 89.1504 155.076 89.1504 155.111 89.1621C155.135 89.1738 155.146 89.3203 155.146 89.6016C155.146 89.8711 155.135 90.2168 155.111 90.6387C155.1 91.0488 155.082 91.5 155.059 91.9922C155.035 92.4727 155.012 92.9297 154.988 93.3633C154.977 93.7969 154.965 94.1777 154.953 94.5059C154.953 94.8223 154.965 95.0215 154.988 95.1035ZM158.434 96.1582C158.188 96.1582 157.936 96.0938 157.678 95.9648C157.42 95.8359 157.18 95.6426 156.957 95.3848C156.734 95.1152 156.553 94.7871 156.412 94.4004C156.271 94.002 156.201 93.5391 156.201 93.0117C156.201 92.2383 156.301 91.5996 156.5 91.0957C156.699 90.5801 156.939 90.1699 157.221 89.8652C157.514 89.5488 157.83 89.3262 158.17 89.1973C158.51 89.0684 158.82 89.0039 159.102 89.0039C159.395 89.0039 159.635 89.0566 159.822 89.1621C160.021 89.2559 160.186 89.3672 160.314 89.4961V89.1621C160.385 89.1035 160.461 89.0508 160.543 89.0039C160.637 88.957 160.73 88.9219 160.824 88.8984C160.918 88.8633 161.018 88.8457 161.123 88.8457H161.387C161.457 88.8574 161.527 88.8691 161.598 88.8809C161.68 88.8926 161.738 88.9219 161.773 88.9688C161.703 90.5039 161.645 91.7461 161.598 92.6953C161.551 93.6445 161.516 94.3828 161.492 94.9102C161.457 95.5312 161.434 95.9824 161.422 96.2637C161.398 96.7559 161.334 97.2422 161.229 97.7227C161.123 98.2148 160.959 98.6543 160.736 99.041C160.514 99.4277 160.221 99.7383 159.857 99.9727C159.494 100.207 159.049 100.324 158.521 100.324C158.064 100.324 157.695 100.236 157.414 100.061C157.145 99.8848 156.934 99.668 156.781 99.4102C156.641 99.1523 156.547 98.877 156.5 98.584C156.453 98.3027 156.43 98.0449 156.43 97.8105C156.43 97.752 156.459 97.6641 156.518 97.5469C156.588 97.4297 156.682 97.3066 156.799 97.1777C156.928 97.0605 157.086 96.9551 157.273 96.8613C157.461 96.7676 157.672 96.709 157.906 96.6855C157.801 97.002 157.736 97.2891 157.713 97.5469C157.689 97.6875 157.684 97.8281 157.695 97.9688C157.695 98.3555 157.771 98.6777 157.924 98.9355C158.076 99.1934 158.311 99.3223 158.627 99.3223C158.967 99.3223 159.242 99.1758 159.453 98.8828C159.664 98.6016 159.822 98.2559 159.928 97.8457C160.045 97.4473 160.121 97.0254 160.156 96.5801C160.203 96.1465 160.227 95.7773 160.227 95.4727V94.9629C160.156 95.0918 160.068 95.2266 159.963 95.3672C159.869 95.5078 159.752 95.6367 159.611 95.7539C159.471 95.8711 159.301 95.9648 159.102 96.0352C158.914 96.1172 158.691 96.1582 158.434 96.1582ZM159.154 90.0059C158.955 90.0059 158.762 90.0938 158.574 90.2695C158.398 90.4453 158.24 90.6797 158.1 90.9727C157.959 91.2539 157.848 91.5762 157.766 91.9395C157.684 92.3027 157.643 92.666 157.643 93.0293C157.643 93.2637 157.654 93.5039 157.678 93.75C157.713 93.9961 157.771 94.2246 157.854 94.4355C157.947 94.6348 158.064 94.7988 158.205 94.9277C158.346 95.0566 158.533 95.1211 158.768 95.1211C158.943 95.1094 159.107 95.0391 159.26 94.9102C159.389 94.8047 159.518 94.6348 159.646 94.4004C159.787 94.166 159.898 93.832 159.98 93.3984C160.074 93.4922 160.145 93.5801 160.191 93.6621C160.25 93.7441 160.297 93.8203 160.332 93.8906C160.344 93.7969 160.35 93.6855 160.35 93.5566C160.361 93.4277 160.367 93.2812 160.367 93.1172C160.367 92.8008 160.35 92.4609 160.314 92.0977C160.279 91.7227 160.215 91.3828 160.121 91.0781C160.039 90.7734 159.916 90.5215 159.752 90.3223C159.6 90.1113 159.4 90.0059 159.154 90.0059ZM174.465 95.209C174.77 95.5488 175.051 95.8535 175.309 96.123C175.578 96.3926 175.801 96.6094 175.977 96.7734C175.836 96.8672 175.695 96.9434 175.555 97.002C175.426 97.0605 175.309 97.1133 175.203 97.1602C175.074 97.207 174.957 97.248 174.852 97.2832C174.57 97.3418 174.312 97.2949 174.078 97.1426C173.855 96.9902 173.662 96.8145 173.498 96.6152C173.451 96.5684 173.381 96.4746 173.287 96.334C173.053 96.498 172.801 96.6562 172.531 96.8086C172.262 96.9609 171.969 97.0898 171.652 97.1953C171.336 97.3008 170.99 97.3711 170.615 97.4062C170.252 97.4531 169.859 97.459 169.438 97.4238C169.004 97.3887 168.6 97.2656 168.225 97.0547C167.85 96.8438 167.521 96.5801 167.24 96.2637C166.959 95.9473 166.736 95.5957 166.572 95.209C166.42 94.8105 166.344 94.4062 166.344 93.9961C166.344 93.5742 166.414 93.1699 166.555 92.7832C166.695 92.3848 166.871 92.0098 167.082 91.6582C167.305 91.2949 167.545 90.9551 167.803 90.6387C168.072 90.3223 168.336 90.0352 168.594 89.7773C168.5 89.6016 168.412 89.4375 168.33 89.2852C168.26 89.1211 168.195 88.957 168.137 88.793C167.855 88.1133 167.721 87.4805 167.732 86.8945C167.756 86.3086 167.891 85.8047 168.137 85.3828C168.383 84.9492 168.734 84.6211 169.191 84.3984C169.648 84.1758 170.188 84.0938 170.809 84.1523C171.172 84.1875 171.488 84.2695 171.758 84.3984C172.027 84.5156 172.25 84.668 172.426 84.8555C172.602 85.0312 172.73 85.2363 172.812 85.4707C172.895 85.6934 172.936 85.9277 172.936 86.1738C172.936 86.4199 172.895 86.6895 172.812 86.9824C172.742 87.2754 172.619 87.5859 172.443 87.9141C172.268 88.2422 172.033 88.5879 171.74 88.9512C171.447 89.3145 171.078 89.6895 170.633 90.0762C170.762 90.2871 170.896 90.5039 171.037 90.7266C171.178 90.9375 171.318 91.1602 171.459 91.3945C171.752 91.8281 172.08 92.2793 172.443 92.748C172.807 93.2168 173.176 93.6855 173.551 94.1543C173.82 93.8145 174.031 93.4336 174.184 93.0117C174.336 92.5898 174.412 92.1562 174.412 91.7109C174.541 91.7695 174.646 91.8457 174.729 91.9395C174.822 92.0215 174.898 92.1035 174.957 92.1855C175.027 92.291 175.092 92.3906 175.15 92.4844C175.291 92.8125 175.355 93.1582 175.344 93.5215C175.344 93.8848 175.168 94.3008 174.816 94.7695C174.781 94.8281 174.729 94.8984 174.658 94.9805C174.6 95.0508 174.535 95.127 174.465 95.209ZM170.738 85.5059C170.586 85.4941 170.416 85.5059 170.229 85.541C170.041 85.5762 169.865 85.6465 169.701 85.752C169.537 85.8457 169.396 85.9805 169.279 86.1562C169.174 86.3203 169.121 86.5312 169.121 86.7891C169.121 86.9531 169.18 87.1934 169.297 87.5098C169.414 87.8262 169.59 88.1953 169.824 88.6172C170.398 88.0781 170.832 87.627 171.125 87.2637C171.43 86.8887 171.582 86.5605 171.582 86.2793C171.582 85.7988 171.301 85.541 170.738 85.5059ZM170.123 95.8418C170.498 95.877 170.879 95.8418 171.266 95.7363C171.652 95.6309 172.021 95.4609 172.373 95.2266C171.939 94.6875 171.453 94.0547 170.914 93.3281C170.387 92.5898 169.877 91.8516 169.385 91.1133C168.881 91.6406 168.553 92.1211 168.4 92.5547C168.248 92.9766 168.172 93.3633 168.172 93.7148C168.172 93.9023 168.213 94.1133 168.295 94.3477C168.377 94.582 168.5 94.8047 168.664 95.0156C168.828 95.2266 169.033 95.4082 169.279 95.5605C169.525 95.7129 169.807 95.8066 170.123 95.8418ZM180.652 88.1953C180.559 88.1836 180.465 88.125 180.371 88.0195C180.289 87.9141 180.213 87.7969 180.143 87.668C180.061 87.5273 179.984 87.3633 179.914 87.1758C179.832 86.9414 179.779 86.7422 179.756 86.5781C179.744 86.4023 179.756 86.25 179.791 86.1211C179.826 85.9922 179.885 85.875 179.967 85.7695C180.049 85.6641 180.148 85.5586 180.266 85.4531C180.406 85.3242 180.664 85.1602 181.039 84.9609C181.414 84.7617 181.848 84.5918 182.34 84.4512V84.2754C182.34 84.2168 182.34 84.1641 182.34 84.1172C182.352 84.0703 182.357 84.0234 182.357 83.9766L183.746 83.5195C183.84 83.4844 183.939 83.4844 184.045 83.5195C184.15 83.543 184.191 83.6484 184.168 83.8359C184.168 83.8945 184.162 83.9531 184.15 84.0117C184.15 84.0703 184.145 84.1348 184.133 84.2051C184.883 84.2285 185.562 84.3809 186.172 84.6621C186.793 84.9434 187.32 85.3301 187.754 85.8223C188.199 86.3027 188.545 86.877 188.791 87.5449C189.037 88.2129 189.16 88.9395 189.16 89.7246C189.16 90.8848 188.996 91.8926 188.668 92.748C188.34 93.6035 187.912 94.3301 187.385 94.9277C186.857 95.5254 186.26 96.0059 185.592 96.3691C184.924 96.7324 184.256 96.9961 183.588 97.1602C183.506 97.2422 183.395 97.3242 183.254 97.4062C183.113 97.4883 182.961 97.5586 182.797 97.6172C182.633 97.6758 182.463 97.7168 182.287 97.7402C182.123 97.7754 181.977 97.7812 181.848 97.7578C181.848 97.7344 181.848 97.6992 181.848 97.6523C181.859 97.6055 181.865 97.5645 181.865 97.5293C181.865 97.4824 181.871 97.4355 181.883 97.3887C181.426 97.4121 181.027 97.3887 180.688 97.3184C180.605 97.2715 180.529 97.1836 180.459 97.0547C180.424 97.0078 180.395 96.9492 180.371 96.8789C180.336 96.8203 180.312 96.7617 180.301 96.7031C180.266 96.5977 180.266 96.4688 180.301 96.3164C180.875 96.3867 181.426 96.3867 181.953 96.3164C181.988 95.8125 182.023 95.2031 182.059 94.4883C182.094 93.7617 182.129 92.9766 182.164 92.1328C182.188 91.6406 182.205 91.1191 182.217 90.5684C182.24 90.0059 182.258 89.4492 182.27 88.8984C182.281 88.3359 182.293 87.791 182.305 87.2637C182.316 86.7363 182.322 86.25 182.322 85.8047C181.76 86.0273 181.32 86.3496 181.004 86.7715C180.699 87.1816 180.582 87.6562 180.652 88.1953ZM183.799 88.3008C183.752 89.0859 183.717 89.8535 183.693 90.6035C183.67 91.3535 183.652 92.0625 183.641 92.7305C183.641 93.3984 183.646 94.0078 183.658 94.5586C183.67 95.0977 183.682 95.5547 183.693 95.9297C184.818 95.5078 185.715 94.7988 186.383 93.8027C187.062 92.8066 187.402 91.5586 187.402 90.0586C187.402 89.4023 187.32 88.8047 187.156 88.2656C187.004 87.7148 186.781 87.2461 186.488 86.8594C186.195 86.4609 185.844 86.1504 185.434 85.9277C185.023 85.7051 184.572 85.582 184.08 85.5586H184.01C183.975 85.9102 183.939 86.3145 183.904 86.7715C183.869 87.2168 183.834 87.7266 183.799 88.3008ZM194.926 90.6035C194.926 90.7676 194.879 90.9375 194.785 91.1133C194.703 91.2773 194.598 91.4355 194.469 91.5879C194.34 91.7402 194.193 91.875 194.029 91.9922C193.877 92.0977 193.73 92.1621 193.59 92.1855C193.684 91.8223 193.713 91.541 193.678 91.3418C193.643 91.1426 193.584 90.9961 193.502 90.9023C193.408 90.7969 193.291 90.7383 193.15 90.7266C192.939 90.7266 192.734 90.8496 192.535 91.0957C192.348 91.3301 192.184 91.623 192.043 91.9746C191.902 92.3145 191.791 92.6836 191.709 93.082C191.627 93.4688 191.586 93.8203 191.586 94.1367C191.574 94.3594 191.58 94.5762 191.604 94.7871C191.615 94.9629 191.633 95.1445 191.656 95.332C191.691 95.5195 191.738 95.666 191.797 95.7715C191.727 95.8301 191.609 95.9004 191.445 95.9824C191.293 96.0645 191.129 96.1172 190.953 96.1406C190.789 96.1641 190.637 96.1348 190.496 96.0527C190.367 95.9707 190.297 95.7949 190.285 95.5254C190.262 95.2676 190.244 94.9805 190.232 94.6641C190.232 94.3359 190.232 94.0137 190.232 93.6973C190.244 93.3691 190.256 93.0469 190.268 92.7305C190.279 92.4141 190.297 92.1211 190.32 91.8516C190.344 91.3359 190.355 90.9375 190.355 90.6562C190.355 90.375 190.35 90.1055 190.338 89.8477C190.338 89.8008 190.414 89.7363 190.566 89.6543C190.73 89.5605 190.906 89.4785 191.094 89.4082C191.293 89.3379 191.475 89.2969 191.639 89.2852C191.803 89.2734 191.885 89.3086 191.885 89.3906C191.885 89.5195 191.867 89.7773 191.832 90.1641C191.809 90.5391 191.773 90.9316 191.727 91.3418C191.809 91.1191 191.914 90.8789 192.043 90.6211C192.184 90.3633 192.342 90.123 192.518 89.9004C192.693 89.6777 192.893 89.4961 193.115 89.3555C193.338 89.2031 193.584 89.127 193.854 89.127C194.064 89.127 194.234 89.1914 194.363 89.3203C194.504 89.4492 194.615 89.5957 194.697 89.7598C194.779 89.9238 194.838 90.0879 194.873 90.252C194.908 90.416 194.926 90.5332 194.926 90.6035ZM200.34 92.9766C200.316 93.4336 200.234 93.8555 200.094 94.2422C199.965 94.6289 199.783 94.9688 199.549 95.2617C199.314 95.543 199.033 95.7656 198.705 95.9297C198.389 96.0938 198.037 96.1816 197.65 96.1934C197.311 96.2051 196.988 96.123 196.684 95.9473C196.391 95.7715 196.133 95.5254 195.91 95.209C195.688 94.8926 195.518 94.5176 195.4 94.084C195.295 93.6387 195.266 93.1582 195.312 92.6426C195.348 92.0449 195.459 91.5352 195.646 91.1133C195.834 90.6797 196.033 90.3223 196.244 90.041C196.455 89.7598 196.648 89.5547 196.824 89.4258C197.012 89.2852 197.129 89.2031 197.176 89.1797C197.258 89.1445 197.334 89.1387 197.404 89.1621C197.475 89.1738 197.551 89.1914 197.633 89.2148C197.656 89.2266 197.68 89.2559 197.703 89.3027C197.75 89.3848 197.779 89.5371 197.791 89.7598C197.85 89.6309 197.926 89.5254 198.02 89.4434C198.113 89.3613 198.207 89.3027 198.301 89.2676C198.418 89.2207 198.535 89.1914 198.652 89.1797C198.734 89.168 198.875 89.2324 199.074 89.373C199.285 89.5137 199.484 89.7363 199.672 90.041C199.871 90.3457 200.041 90.7441 200.182 91.2363C200.322 91.7168 200.375 92.2969 200.34 92.9766ZM199.145 92.7656C199.156 92.4844 199.145 92.2031 199.109 91.9219C199.086 91.6289 199.039 91.3652 198.969 91.1309C198.91 90.8848 198.834 90.6914 198.74 90.5508C198.646 90.3984 198.553 90.3223 198.459 90.3223C198.354 90.3457 198.236 90.3984 198.107 90.4805C198.002 90.5508 197.885 90.6621 197.756 90.8145C197.627 90.9668 197.504 91.1836 197.387 91.4648C197.375 91.4297 197.363 91.3652 197.352 91.2715C197.34 91.1895 197.328 91.084 197.316 90.9551C197.316 90.8145 197.328 90.627 197.352 90.3926C197.188 90.5918 197.059 90.8262 196.965 91.0957C196.883 91.3652 196.818 91.623 196.771 91.8691C196.725 92.1621 196.689 92.4551 196.666 92.748C196.654 93.0645 196.666 93.375 196.701 93.6797C196.748 93.9844 196.818 94.2539 196.912 94.4883C197.018 94.7227 197.141 94.9102 197.281 95.0508C197.422 95.1914 197.592 95.2559 197.791 95.2441C197.99 95.2324 198.166 95.1504 198.318 94.998C198.471 94.8457 198.605 94.6523 198.723 94.418C198.84 94.1836 198.934 93.9199 199.004 93.627C199.074 93.334 199.121 93.0469 199.145 92.7656ZM204.717 89.0391C205.045 89.0391 205.35 89.1328 205.631 89.3203C205.912 89.5078 206.152 89.7539 206.352 90.0586C206.551 90.3633 206.709 90.7148 206.826 91.1133C206.943 91.5 207.002 91.9043 207.002 92.3262C207.002 92.748 206.955 93.1934 206.861 93.6621C206.768 94.1309 206.621 94.5645 206.422 94.9629C206.223 95.3613 205.965 95.6953 205.648 95.9648C205.332 96.2227 204.945 96.3516 204.488 96.3516C204.125 96.3516 203.779 96.2227 203.451 95.9648C203.135 95.6953 202.889 95.3613 202.713 94.9629C202.689 95.373 202.637 95.7891 202.555 96.2109C202.473 96.6445 202.432 97.1602 202.432 97.7578C202.432 97.9336 202.438 98.1328 202.449 98.3555C202.461 98.5781 202.479 98.8008 202.502 99.0234C202.525 99.2461 202.561 99.4512 202.607 99.6387C202.654 99.8262 202.707 99.9727 202.766 100.078C202.566 100.195 202.385 100.283 202.221 100.342C202.068 100.4 201.934 100.441 201.816 100.465C201.688 100.5 201.564 100.518 201.447 100.518C201.295 100.518 201.195 100.453 201.148 100.324C201.102 100.195 201.078 99.9668 201.078 99.6387C201.078 99.4277 201.084 99.123 201.096 98.7246C201.119 98.3379 201.143 97.8926 201.166 97.3887C201.201 96.8848 201.23 96.3574 201.254 95.8066C201.289 95.2441 201.318 94.6934 201.342 94.1543C201.377 93.6152 201.4 93.1172 201.412 92.6602C201.436 92.1914 201.447 91.7988 201.447 91.4824C201.447 91.0957 201.441 90.7969 201.43 90.5859C201.418 90.3633 201.4 90.1992 201.377 90.0938C201.365 89.9766 201.348 89.8945 201.324 89.8477C201.301 89.8008 201.271 89.748 201.236 89.6895C201.342 89.6074 201.465 89.5371 201.605 89.4785C201.758 89.4082 201.904 89.3613 202.045 89.3379C202.197 89.3027 202.332 89.291 202.449 89.3027C202.578 89.3145 202.678 89.3438 202.748 89.3906C202.807 89.4492 202.848 89.5371 202.871 89.6543C202.906 89.7715 202.936 89.9473 202.959 90.1816C203.182 89.877 203.434 89.6133 203.715 89.3906C204.008 89.1562 204.342 89.0391 204.717 89.0391ZM204.031 95.3145C204.242 95.3145 204.441 95.2148 204.629 95.0156C204.828 94.8164 204.998 94.5645 205.139 94.2598C205.291 93.9434 205.408 93.5977 205.49 93.2227C205.584 92.8359 205.631 92.4551 205.631 92.0801C205.631 91.6699 205.59 91.3359 205.508 91.0781C205.438 90.8086 205.344 90.5977 205.227 90.4453C205.121 90.2812 205.004 90.1699 204.875 90.1113C204.758 90.041 204.652 90.0059 204.559 90.0059C204.336 90.0059 204.125 90.0996 203.926 90.2871C203.727 90.4629 203.551 90.6973 203.398 90.9902C203.246 91.2715 203.123 91.5879 203.029 91.9395C202.947 92.291 202.906 92.6426 202.906 92.9941C202.906 93.3223 202.936 93.627 202.994 93.9082C203.064 94.1895 203.152 94.4355 203.258 94.6465C203.363 94.8574 203.48 95.0215 203.609 95.1387C203.75 95.2559 203.891 95.3145 204.031 95.3145Z" fill="white"/>
<path d="M119.188 59.375C119.812 59.375 120.344 59.2656 120.781 59.0469C120.5 58.5469 120.188 58.0625 119.844 57.5938C119.5 57.0938 119.141 56.6562 118.766 56.2812C118.391 55.875 118 55.5469 117.594 55.2969C117.188 55.0469 116.75 54.9219 116.281 54.9219C115.938 54.9219 115.656 55.0625 115.438 55.3438C115.25 55.5938 115.172 55.9219 115.203 56.3281C115.234 56.7031 115.391 57.1094 115.672 57.5469C115.953 57.9844 116.406 58.3906 117.031 58.7656C117.656 59.1719 118.375 59.375 119.188 59.375ZM122.141 27.9688C123.297 28 124.422 28.4062 125.516 29.1875C126.641 29.9688 127.625 31.0625 128.469 32.4688C129.312 33.875 129.969 35.5625 130.438 37.5312C130.938 39.5 131.172 41.7031 131.141 44.1406C131.078 47.6406 130.578 50.7812 129.641 53.5625C128.703 56.3438 127.391 58.5625 125.703 60.2188C126.578 61.2188 127.469 61.9688 128.375 62.4688C129.312 62.9688 130.531 63.2188 132.031 63.2188C131.906 63.875 131.625 64.3906 131.188 64.7656C130.781 65.1406 130.359 65.4375 129.922 65.6562C129.359 65.9062 128.766 66.0781 128.141 66.1719C127.359 66.2344 126.672 66.1406 126.078 65.8906C125.516 65.6719 125.016 65.3594 124.578 64.9531C124.172 64.5469 123.812 64.1094 123.5 63.6406C123.188 63.1719 122.906 62.7344 122.656 62.3281C121.5 62.7969 120.297 63.0156 119.047 62.9844C117.359 62.9531 115.812 62.5781 114.406 61.8594C113.031 61.1406 111.844 60.0625 110.844 58.625C109.875 57.1875 109.125 55.375 108.594 53.1875C108.094 51 107.875 48.4219 107.938 45.4531C108 42.4844 108.453 39.8906 109.297 37.6719C110.141 35.4219 111.125 33.5469 112.25 32.0469C113.406 30.5156 114.594 29.3594 115.812 28.5781C117.062 27.7656 118.109 27.3125 118.953 27.2188C119.391 27.5312 119.766 27.8906 120.078 28.2969C120.328 28.2031 120.609 28.125 120.922 28.0625C121.266 28 121.672 27.9688 122.141 27.9688ZM126.359 44.4219C126.391 42.8281 126.281 41.2969 126.031 39.8281C125.781 38.3281 125.438 37 125 35.8438C124.594 34.6875 124.125 33.7656 123.594 33.0781C123.062 32.3594 122.516 31.9844 121.953 31.9531C121.547 31.9844 121.141 32.1094 120.734 32.3281C120.391 32.5469 120.016 32.875 119.609 33.3125C119.234 33.75 118.875 34.375 118.531 35.1875C118.188 34.75 117.969 34.2812 117.875 33.7812C117.812 33.2812 117.812 32.7812 117.875 32.2812C117.031 32.9062 116.297 33.6875 115.672 34.625C115.078 35.5312 114.578 36.5469 114.172 37.6719C113.766 38.7656 113.453 39.9375 113.234 41.1875C113.016 42.4062 112.891 43.6562 112.859 44.9375C112.828 46.7812 112.891 48.4219 113.047 49.8594C113.203 51.2969 113.422 52.5625 113.703 53.6562C113.922 53.1562 114.266 52.75 114.734 52.4375C115.203 52.125 115.844 51.9688 116.656 51.9688C117.781 51.9688 118.828 52.3438 119.797 53.0938C120.797 53.8125 121.938 55.0781 123.219 56.8906C124.188 55.5156 124.938 53.7344 125.469 51.5469C126 49.3281 126.297 46.9531 126.359 44.4219ZM144.641 41.5625C144.641 41.2188 144.844 40.9688 145.25 40.8125C145.688 40.625 146.141 40.5312 146.609 40.5312C147.109 40.5312 147.562 40.625 147.969 40.8125C148.375 40.9688 148.562 41.1875 148.531 41.4688C148.5 41.6875 148.469 42.125 148.438 42.7812C148.406 43.4062 148.359 44.1562 148.297 45.0312C148.266 45.9062 148.219 46.8438 148.156 47.8438C148.094 48.8438 148.031 49.8281 147.969 50.7969C147.938 51.7344 147.906 52.6094 147.875 53.4219C147.875 54.2344 147.875 54.8594 147.875 55.2969C147.875 55.8594 147.906 56.375 147.969 56.8438C148.031 57.25 148.109 57.6562 148.203 58.0625C148.297 58.4375 148.438 58.7031 148.625 58.8594C148.375 58.9531 148.109 59.0156 147.828 59.0469C147.578 59.0781 147.344 59.1094 147.125 59.1406C146.875 59.1719 146.625 59.1875 146.375 59.1875C145.844 59.1875 145.391 59.0781 145.016 58.8594C144.672 58.6406 144.5 58.1875 144.5 57.5C144.5 57.1562 144.516 56.6562 144.547 56C144.609 55.3438 144.672 54.6406 144.734 53.8906C144.516 54.5469 144.25 55.2188 143.938 55.9062C143.625 56.5938 143.234 57.2031 142.766 57.7344C142.328 58.2656 141.828 58.7031 141.266 59.0469C140.703 59.3906 140.062 59.5625 139.344 59.5625C138.531 59.5625 137.781 59.3906 137.094 59.0469C136.438 58.7031 135.859 58.2188 135.359 57.5938C134.859 56.9375 134.484 56.1406 134.234 55.2031C133.984 54.2656 133.891 53.1875 133.953 51.9688C133.953 51.0312 133.969 50.0312 134 48.9688C134.031 48.0625 134.078 47.0156 134.141 45.8281C134.203 44.6406 134.312 43.4062 134.469 42.125C134.5 42 134.719 41.8438 135.125 41.6562C135.531 41.4688 135.984 41.3125 136.484 41.1875C136.984 41.0625 137.469 41.0156 137.938 41.0469C138.406 41.0781 138.75 41.2656 138.969 41.6094C138.812 42.1719 138.656 42.8438 138.5 43.625C138.344 44.375 138.203 45.1562 138.078 45.9688C137.953 46.7812 137.859 47.5781 137.797 48.3594C137.734 49.1406 137.703 49.8594 137.703 50.5156C137.703 51.1094 137.734 51.7656 137.797 52.4844C137.859 53.1719 137.969 53.8281 138.125 54.4531C138.312 55.0469 138.562 55.5469 138.875 55.9531C139.219 56.3594 139.656 56.5625 140.188 56.5625C140.781 56.5625 141.297 56.3125 141.734 55.8125C142.203 55.2812 142.594 54.6094 142.906 53.7969C143.219 52.9844 143.484 52.0625 143.703 51.0312C143.922 49.9688 144.094 48.9219 144.219 47.8906C144.375 46.8594 144.469 45.875 144.5 44.9375C144.562 43.9688 144.609 43.1562 144.641 42.5V41.5625ZM152.094 42.4062C152.094 42.2188 152.344 42.0156 152.844 41.7969C153.344 41.5781 153.891 41.4062 154.484 41.2812C155.109 41.125 155.672 41.0469 156.172 41.0469C156.703 41.0156 156.969 41.125 156.969 41.375C156.969 41.8438 156.938 42.5156 156.875 43.3906C156.812 44.2344 156.734 45.1406 156.641 46.1094C156.547 47.0469 156.453 48 156.359 48.9688C156.266 49.9062 156.203 50.7031 156.172 51.3594C156.109 52.0469 156.047 52.7969 155.984 53.6094C155.922 54.2969 155.875 55.0625 155.844 55.9062C155.812 56.75 155.812 57.6094 155.844 58.4844C155.844 58.6406 155.688 58.7969 155.375 58.9531C155.062 59.1094 154.719 59.2188 154.344 59.2812C153.969 59.375 153.609 59.4219 153.266 59.4219C152.922 59.4219 152.734 59.3594 152.703 59.2344C152.641 59.1094 152.578 58.8906 152.516 58.5781C152.453 58.2656 152.391 57.8281 152.328 57.2656C152.266 56.6719 152.219 55.9219 152.188 55.0156C152.156 54.0781 152.172 52.9531 152.234 51.6406C152.359 49.0469 152.375 47.0469 152.281 45.6406C152.188 44.2031 152.125 43.125 152.094 42.4062ZM155.375 33.0781C156 33.0781 156.594 33.2656 157.156 33.6406C157.719 34.0156 158 34.5156 158 35.1406C158 35.6094 157.875 36.0625 157.625 36.5C157.406 36.9375 157.125 37.3281 156.781 37.6719C156.438 38.0156 156.047 38.2969 155.609 38.5156C155.172 38.7031 154.766 38.7969 154.391 38.7969C153.891 38.7969 153.484 38.7188 153.172 38.5625C152.859 38.375 152.609 38.1719 152.422 37.9531C152.266 37.7031 152.156 37.4375 152.094 37.1562C152.031 36.875 152 36.6094 152 36.3594C152 36.0469 152.047 35.7031 152.141 35.3281C152.234 34.9219 152.406 34.5625 152.656 34.25C152.906 33.9062 153.25 33.625 153.688 33.4062C154.125 33.1875 154.688 33.0781 155.375 33.0781ZM154.203 37.4375C154.391 37.4375 154.594 37.375 154.812 37.25C155.062 37.0938 155.281 36.9219 155.469 36.7344C155.688 36.5469 155.859 36.3438 155.984 36.125C156.141 35.9062 156.219 35.7188 156.219 35.5625C156.219 35.3125 156.094 35.1875 155.844 35.1875C155.688 35.1875 155.484 35.25 155.234 35.375C155.016 35.5 154.797 35.6562 154.578 35.8438C154.359 36 154.172 36.1875 154.016 36.4062C153.891 36.5938 153.828 36.7812 153.828 36.9688C153.828 37.2812 153.953 37.4375 154.203 37.4375ZM173.047 53.0938C173.047 53.4375 172.922 53.9688 172.672 54.6875C172.453 55.375 172.078 56.0781 171.547 56.7969C171.016 57.4844 170.328 58.0938 169.484 58.625C168.672 59.1562 167.672 59.4219 166.484 59.4219C164.797 59.4219 163.375 58.9688 162.219 58.0625C161.094 57.125 160.297 55.7969 159.828 54.0781C159.453 52.6406 159.344 51.1094 159.5 49.4844C159.688 47.8281 160.141 46.2969 160.859 44.8906C161.578 43.4844 162.578 42.2969 163.859 41.3281C165.141 40.3281 166.703 39.7812 168.547 39.6875C169.484 39.6562 170.266 39.8281 170.891 40.2031C171.516 40.5781 172 41.0625 172.344 41.6562C172.688 42.25 172.891 42.9062 172.953 43.625C173.016 44.3125 172.938 44.9688 172.719 45.5938C172.531 46.2188 172.219 46.75 171.781 47.1875C171.375 47.5938 170.844 47.8125 170.188 47.8438C169.531 47.9062 168.984 47.8281 168.547 47.6094C168.141 47.3594 167.812 47.0625 167.562 46.7188C167.344 46.375 167.188 46.0156 167.094 45.6406C167.031 45.2656 167.031 44.9375 167.094 44.6562C167.188 44.25 167.344 43.875 167.562 43.5312C167.75 43.2188 168.016 42.9062 168.359 42.5938C168.734 42.2812 169.219 42.0312 169.812 41.8438C169.719 41.7812 169.625 41.75 169.531 41.75C169.438 41.75 169.344 41.7344 169.25 41.7031C169.125 41.7031 169.031 41.6875 168.969 41.6562C168.469 41.6562 167.891 41.8281 167.234 42.1719C166.609 42.5156 166 43.0625 165.406 43.8125C164.844 44.5625 164.359 45.5312 163.953 46.7188C163.578 47.875 163.391 49.2812 163.391 50.9375C163.391 51.6562 163.469 52.375 163.625 53.0938C163.781 53.7812 164.016 54.4062 164.328 54.9688C164.672 55.5 165.078 55.9375 165.547 56.2812C166.047 56.5938 166.625 56.75 167.281 56.75C168.031 56.75 168.688 56.5938 169.25 56.2812C169.844 55.9375 170.344 55.5469 170.75 55.1094C171.156 54.6719 171.469 54.2344 171.688 53.7969C171.938 53.3594 172.109 53.0312 172.203 52.8125C172.297 52.625 172.453 52.5312 172.672 52.5312C172.922 52.5312 173.047 52.7188 173.047 53.0938ZM185.234 47.7969C185.891 48.0781 186.516 48.5312 187.109 49.1562C187.703 49.75 188.078 50.6562 188.234 51.875C188.359 52.9375 188.531 53.8906 188.75 54.7344C188.969 55.5781 189.281 56.3438 189.688 57.0312C190.094 57.6875 190.625 58.2812 191.281 58.8125C191.969 59.3125 192.844 59.75 193.906 60.125C193.625 60.375 193.281 60.5781 192.875 60.7344C192.5 60.8906 192.141 61 191.797 61.0625C191.391 61.1875 190.969 61.25 190.531 61.25C189.5 61.3438 188.656 61.2031 188 60.8281C187.344 60.4844 186.828 59.9688 186.453 59.2812C186.078 58.5938 185.797 57.7969 185.609 56.8906C185.422 55.9844 185.281 55.0469 185.188 54.0781C185.156 53.6719 185.109 53.25 185.047 52.8125C184.984 52.375 184.875 51.9531 184.719 51.5469C184.562 51.1406 184.344 50.7656 184.062 50.4219C183.812 50.0781 183.484 49.8125 183.078 49.625C182.391 50.1562 181.75 50.625 181.156 51.0312C180.594 51.4062 180.094 51.7188 179.656 51.9688C179.688 53.6562 179.766 55.0469 179.891 56.1406C180.047 57.2344 180.25 57.9688 180.5 58.3438C180.281 58.5 180.062 58.6406 179.844 58.7656C179.625 58.8594 179.438 58.9375 179.281 59C179.062 59.0938 178.859 59.1562 178.672 59.1875C178.047 59.375 177.484 59.3438 176.984 59.0938C176.516 58.875 176.266 58.2656 176.234 57.2656L175.953 29.8906C175.953 29.6406 176.188 29.3906 176.656 29.1406C177.156 28.8594 177.703 28.6406 178.297 28.4844C178.891 28.3281 179.422 28.25 179.891 28.25C180.391 28.25 180.625 28.3906 180.594 28.6719C180.5 30.8281 180.406 32.8594 180.312 34.7656C180.219 36.6719 180.141 38.3594 180.078 39.8281C179.984 41.5469 179.906 43.1094 179.844 44.5156C179.781 45.3594 179.734 46.1719 179.703 46.9531C179.703 47.7344 179.688 48.4844 179.656 49.2031C180.25 48.7344 180.875 48.2188 181.531 47.6562C182.188 47.0938 182.812 46.4688 183.406 45.7812C184 45.0938 184.5 44.3594 184.906 43.5781C185.312 42.7656 185.547 41.9062 185.609 41C185.953 40.75 186.297 40.5469 186.641 40.3906C187.016 40.2031 187.344 40.0625 187.625 39.9688C187.969 39.8438 188.281 39.7812 188.562 39.7812C189.281 39.75 189.703 39.9062 189.828 40.25C189.922 40.5 189.906 40.875 189.781 41.375C189.688 41.8438 189.453 42.4219 189.078 43.1094C188.734 43.7656 188.25 44.5 187.625 45.3125C187 46.0938 186.203 46.9219 185.234 47.7969ZM215.75 50.9375C215.688 52.1562 215.469 53.2812 215.094 54.3125C214.75 55.3438 214.266 56.25 213.641 57.0312C213.016 57.7812 212.266 58.375 211.391 58.8125C210.547 59.25 209.609 59.4844 208.578 59.5156C207.672 59.5469 206.812 59.3281 206 58.8594C205.219 58.3906 204.531 57.7344 203.938 56.8906C203.344 56.0469 202.891 55.0469 202.578 53.8906C202.297 52.7031 202.219 51.4219 202.344 50.0469C202.438 48.4531 202.734 47.0938 203.234 45.9688C203.734 44.8125 204.266 43.8594 204.828 43.1094C205.391 42.3594 205.906 41.8125 206.375 41.4688C206.875 41.0938 207.188 40.875 207.312 40.8125C207.531 40.7188 207.734 40.7031 207.922 40.7656C208.109 40.7969 208.312 40.8438 208.531 40.9062C208.594 40.9375 208.656 41.0156 208.719 41.1406C208.844 41.3594 208.922 41.7656 208.953 42.3594C209.109 42.0156 209.312 41.7344 209.562 41.5156C209.812 41.2969 210.062 41.1406 210.312 41.0469C210.625 40.9219 210.938 40.8438 211.25 40.8125C211.469 40.7812 211.844 40.9531 212.375 41.3281C212.938 41.7031 213.469 42.2969 213.969 43.1094C214.5 43.9219 214.953 44.9844 215.328 46.2969C215.703 47.5781 215.844 49.125 215.75 50.9375ZM212.562 50.375C212.594 49.625 212.562 48.875 212.469 48.125C212.406 47.3438 212.281 46.6406 212.094 46.0156C211.938 45.3594 211.734 44.8438 211.484 44.4688C211.234 44.0625 210.984 43.8594 210.734 43.8594C210.453 43.9219 210.141 44.0625 209.797 44.2812C209.516 44.4688 209.203 44.7656 208.859 45.1719C208.516 45.5781 208.188 46.1562 207.875 46.9062C207.844 46.8125 207.812 46.6406 207.781 46.3906C207.75 46.1719 207.719 45.8906 207.688 45.5469C207.688 45.1719 207.719 44.6719 207.781 44.0469C207.344 44.5781 207 45.2031 206.75 45.9219C206.531 46.6406 206.359 47.3281 206.234 47.9844C206.109 48.7656 206.016 49.5469 205.953 50.3281C205.922 51.1719 205.953 52 206.047 52.8125C206.172 53.625 206.359 54.3438 206.609 54.9688C206.891 55.5938 207.219 56.0938 207.594 56.4688C207.969 56.8438 208.422 57.0156 208.953 56.9844C209.484 56.9531 209.953 56.7344 210.359 56.3281C210.766 55.9219 211.125 55.4062 211.438 54.7812C211.75 54.1562 212 53.4531 212.188 52.6719C212.375 51.8906 212.5 51.125 212.562 50.375ZM223.156 57.7344C223.125 57.9219 222.953 58.125 222.641 58.3438C222.359 58.5312 222.016 58.7031 221.609 58.8594C221.234 59.0156 220.875 59.1094 220.531 59.1406C220.188 59.2031 219.953 59.1719 219.828 59.0469C219.703 58.9219 219.5 58.6875 219.219 58.3438C218.938 58 218.766 57.4375 218.703 56.6562C218.641 55.8438 218.609 54.8281 218.609 53.6094C218.609 52.3594 218.594 50.9844 218.562 49.4844V47.6094C218.562 47.0469 218.547 46.3906 218.516 45.6406C218.516 44.8906 218.5 44.1094 218.469 43.2969C218.75 43.1406 219.031 43 219.312 42.875C219.625 42.7188 219.906 42.5938 220.156 42.5C220.438 42.375 220.703 42.2812 220.953 42.2188C221.609 42.0312 222.109 41.9219 222.453 41.8906C222.797 41.8594 223 41.9688 223.062 42.2188C223.094 42.4062 223.078 42.8594 223.016 43.5781C222.953 44.2031 222.875 45.1562 222.781 46.4375C222.688 47.6875 222.531 49.4375 222.312 51.6875C222.719 50.6875 223.047 49.8281 223.297 49.1094C223.578 48.3906 223.812 47.8125 224 47.375C224.188 46.8438 224.359 46.4219 224.516 46.1094C224.672 45.7031 224.875 45.25 225.125 44.75C225.375 44.25 225.625 43.7812 225.875 43.3438C226.156 42.9062 226.406 42.5156 226.625 42.1719C226.875 41.8281 227.062 41.625 227.188 41.5625C227.281 41.5 227.562 41.5 228.031 41.5625C228.5 41.625 229 41.7812 229.531 42.0312C230.062 42.25 230.578 42.5781 231.078 43.0156C231.578 43.4219 231.906 43.9219 232.062 44.5156C232.25 45.2031 232.312 46.1094 232.25 47.2344C232.219 48.3594 232.141 49.5156 232.016 50.7031C231.922 51.8906 231.844 53.0156 231.781 54.0781C231.719 55.1406 231.781 55.9531 231.969 56.5156C232.031 56.8281 232.125 57.1094 232.25 57.3594C232.312 57.6094 232.391 57.8438 232.484 58.0625C232.609 58.25 232.734 58.3906 232.859 58.4844C232.109 58.8281 231.5 59.0781 231.031 59.2344C230.562 59.3906 230.203 59.5 229.953 59.5625C229.641 59.6562 229.422 59.6875 229.297 59.6562C229.016 59.5625 228.766 59.3281 228.547 58.9531C228.359 58.5781 228.188 57.9844 228.031 57.1719C227.969 56.9219 227.938 56.5156 227.938 55.9531C227.969 55.3594 228.016 54.7031 228.078 53.9844C228.141 53.2344 228.203 52.4688 228.266 51.6875C228.359 50.875 228.422 50.125 228.453 49.4375C228.516 48.7188 228.562 48.1094 228.594 47.6094C228.625 47.0781 228.625 46.7188 228.594 46.5312C228.438 45.9688 228.219 45.5781 227.938 45.3594C227.656 45.1094 227.438 45.0781 227.281 45.2656C226.875 45.7344 226.438 46.5 225.969 47.5625C225.531 48.5938 225.109 49.7344 224.703 50.9844C224.297 52.2031 223.953 53.4219 223.672 54.6406C223.391 55.8594 223.219 56.8906 223.156 57.7344ZM241.859 59.5156C239.672 59.5156 237.984 58.7812 236.797 57.3125C235.609 55.8438 235.016 53.9219 235.016 51.5469C235.016 49.8906 235.25 48.3438 235.719 46.9062C236.219 45.4375 236.875 44.1719 237.688 43.1094C238.5 42.0469 239.438 41.2188 240.5 40.625C241.594 40 242.734 39.6875 243.922 39.6875C245.078 39.6875 246.062 40.1094 246.875 40.9531C247.688 41.7656 248.094 42.9375 248.094 44.4688C248.094 45.4688 247.875 46.4688 247.438 47.4688C247 48.4375 246.422 49.3125 245.703 50.0938C245.016 50.8438 244.25 51.4531 243.406 51.9219C242.562 52.3906 241.75 52.625 240.969 52.625C240.469 52.625 240.047 52.5625 239.703 52.4375C239.359 52.3125 239.047 52.125 238.766 51.875C238.859 53.6562 239.25 54.9062 239.938 55.625C240.625 56.3125 241.516 56.6562 242.609 56.6562C243.359 56.6562 244.016 56.5 244.578 56.1875C245.172 55.875 245.672 55.5156 246.078 55.1094C246.484 54.7031 246.812 54.2969 247.062 53.8906C247.312 53.4531 247.484 53.125 247.578 52.9062C247.672 52.7188 247.828 52.625 248.047 52.625C248.297 52.625 248.422 52.8125 248.422 53.1875C248.422 53.5312 248.297 54.0625 248.047 54.7812C247.828 55.4688 247.453 56.1719 246.922 56.8906C246.391 57.5781 245.703 58.1875 244.859 58.7188C244.047 59.25 243.047 59.5156 241.859 59.5156ZM244.016 41.7031C243.828 41.7031 243.469 41.9062 242.938 42.3125C242.438 42.6875 241.891 43.25 241.297 44C240.734 44.75 240.203 45.6562 239.703 46.7188C239.234 47.75 238.938 48.9219 238.812 50.2344C240.688 49.7969 242.172 49.1094 243.266 48.1719C244.359 47.2344 244.906 45.8594 244.906 44.0469C244.906 43.1406 244.797 42.5312 244.578 42.2188C244.359 41.875 244.172 41.7031 244.016 41.7031Z" fill="#FCFCFC"/>
<defs>
<filter id="filter0_d" x="0" y="0" width="369" height="134" filterUnits="userSpaceOnUse" color-interpolation-filters="sRGB">
<feFlood flood-opacity="0" result="BackgroundImageFix"/>
<feColorMatrix in="SourceAlpha" type="matrix" values="0 0 0 0 0 0 0 0 0 0 0 0 0 0 0 0 0 0 127 0"/>
<feOffset dy="4"/>
<feGaussianBlur stdDeviation="2"/>
<feColorMatrix type="matrix" values="0 0 0 0 0 0 0 0 0 0 0 0 0 0 0 0 0 0 0.25 0"/>
<feBlend mode="normal" in2="BackgroundImageFix" result="effect1_dropShadow"/>
<feBlend mode="normal" in="SourceGraphic" in2="effect1_dropShadow" result="shape"/>
</filter>
</defs>
</svg>
