<svg width="1237" height="1024" viewBox="0 0 1237 1024" fill="none" xmlns="http://www.w3.org/2000/svg">
<g filter="url(#filter0_d)">
<path d="M904.317 713.844C942.848 705.985 1062.53 552.213 1233 0H0V1023.36H58.9645C66.1648 1026.7 99.9477 1027.17 177.477 1002.29C274.389 971.189 189.153 1016.34 458.872 933.064C593.148 889.421 534.767 924.536 663.205 837.751C765.955 768.323 866.758 726.218 904.317 713.844Z" fill="#E26A13"/>
<path d="M904.317 713.844C942.848 705.985 1062.53 552.213 1233 0H0V1023.36H58.9645C66.1648 1026.7 99.9477 1027.17 177.477 1002.29C274.389 971.189 189.153 1016.34 458.872 933.064C593.148 889.421 534.767 924.536 663.205 837.751C765.955 768.323 866.758 726.218 904.317 713.844Z" stroke="black"/>
</g>
<defs>
<filter id="filter0_d" x="-4" y="0" width="1241" height="1033" filterUnits="userSpaceOnUse" color-interpolation-filters="sRGB">
<feFlood flood-opacity="0" result="BackgroundImageFix"/>
<feColorMatrix in="SourceAlpha" type="matrix" values="0 0 0 0 0 0 0 0 0 0 0 0 0 0 0 0 0 0 127 0"/>
<feOffset dy="4"/>
<feGaussianBlur stdDeviation="2"/>
<feColorMatrix type="matrix" values="0 0 0 0 0 0 0 0 0 0 0 0 0 0 0 0 0 0 0.25 0"/>
<feBlend mode="normal" in2="BackgroundImageFix" result="effect1_dropShadow"/>
<feBlend mode="normal" in="SourceGraphic" in2="effect1_dropShadow" result="shape"/>
</filter>
</defs>
</svg>
